<svg width="25" height="24" viewBox="0 0 25 24" fill="none" xmlns="http://www.w3.org/2000/svg">
<path d="M9.73075 19.4615C9.39225 19.4615 9.1025 19.341 8.8615 19.1C8.6205 18.859 8.5 18.5693 8.5 18.2308C8.5 17.8923 8.6205 17.6025 8.8615 17.3615C9.1025 17.1205 9.39225 17 9.73075 17C10.0692 17 10.359 17.1205 10.6 17.3615C10.841 17.6025 10.9615 17.8923 10.9615 18.2308C10.9615 18.5693 10.841 18.859 10.6 19.1C10.359 19.341 10.0692 19.4615 9.73075 19.4615ZM9.73075 13.4615C9.39225 13.4615 9.1025 13.341 8.8615 13.1C8.6205 12.859 8.5 12.5692 8.5 12.2307C8.5 11.8922 8.6205 11.6025 8.8615 11.3615C9.1025 11.1205 9.39225 11 9.73075 11C10.0692 11 10.359 11.1205 10.6 11.3615C10.841 11.6025 10.9615 11.8922 10.9615 12.2307C10.9615 12.5692 10.841 12.859 10.6 13.1C10.359 13.341 10.0692 13.4615 9.73075 13.4615ZM9.73075 7.4615C9.39225 7.4615 9.1025 7.341 8.8615 7.1C8.6205 6.859 8.5 6.56925 8.5 6.23075C8.5 5.89225 8.6205 5.6025 8.8615 5.3615C9.1025 5.1205 9.39225 5 9.73075 5C10.0692 5 10.359 5.1205 10.6 5.3615C10.841 5.6025 10.9615 5.89225 10.9615 6.23075C10.9615 6.56925 10.841 6.859 10.6 7.1C10.359 7.341 10.0692 7.4615 9.73075 7.4615ZM15.7307 7.4615C15.3922 7.4615 15.1025 7.341 14.8615 7.1C14.6205 6.859 14.5 6.56925 14.5 6.23075C14.5 5.89225 14.6205 5.6025 14.8615 5.3615C15.1025 5.1205 15.3922 5 15.7307 5C16.0692 5 16.359 5.1205 16.6 5.3615C16.841 5.6025 16.9615 5.89225 16.9615 6.23075C16.9615 6.56925 16.841 6.859 16.6 7.1C16.359 7.341 16.0692 7.4615 15.7307 7.4615ZM21.7307 7.4615C21.3922 7.4615 21.1025 7.341 20.8615 7.1C20.6205 6.859 20.5 6.56925 20.5 6.23075C20.5 5.89225 20.6205 5.6025 20.8615 5.3615C21.1025 5.1205 21.3922 5 21.7307 5C22.0692 5 22.359 5.1205 22.6 5.3615C22.841 5.6025 22.9615 5.89225 22.9615 6.23075C22.9615 6.56925 22.841 6.859 22.6 7.1C22.359 7.341 22.0692 7.4615 21.7307 7.4615ZM15.7307 13.4615C15.3922 13.4615 15.1025 13.341 14.8615 13.1C14.6205 12.859 14.5 12.5692 14.5 12.2307C14.5 11.8922 14.6205 11.6025 14.8615 11.3615C15.1025 11.1205 15.3922 11 15.7307 11C16.0692 11 16.359 11.1205 16.6 11.3615C16.841 11.6025 16.9615 11.8922 16.9615 12.2307C16.9615 12.5692 16.841 12.859 16.6 13.1C16.359 13.341 16.0692 13.4615 15.7307 13.4615ZM16.9615 19.4615V17.252L22.2942 11.9442C22.3929 11.8456 22.4947 11.7789 22.5997 11.7442C22.7047 11.7096 22.8097 11.6922 22.9147 11.6922C23.0292 11.6922 23.1417 11.7137 23.2522 11.7567C23.3629 11.7997 23.4634 11.8642 23.5537 11.95L24.4787 12.8942C24.5609 12.9929 24.6234 13.0955 24.6662 13.202C24.7092 13.3083 24.7307 13.4148 24.7307 13.5212C24.7307 13.6276 24.7102 13.7349 24.6692 13.8432C24.6282 13.9516 24.5647 14.0551 24.4787 14.1538L19.1712 19.4615H16.9615ZM17.8462 18.577H18.7962L22.2635 15.1038L21.7942 14.6287L21.3385 14.1403L17.8462 17.627V18.577ZM21.7942 14.6287L21.3385 14.1403L22.2635 15.1038L21.7942 14.6287Z" fill="#B8A49F"/>
</svg>
