<svg width="52" height="51" viewBox="0 0 52 51" fill="none" xmlns="http://www.w3.org/2000/svg">
<g clip-path="url(#clip0_1_125)">
<path d="M27.7938 40.0438H30.5812V41.2375H27.7938V40.0438Z" fill="#645754" stroke="white" stroke-width="0.4"/>
<path d="M26.2 43.2313H32.175V44.425H26.2V43.2313Z" fill="#645754" stroke="white" stroke-width="0.4"/>
<mask id="path-3-inside-1_1_125" fill="white">
<path d="M45.125 14.3436V7.96859C45.13 5.11977 43.6109 2.48609 41.1436 1.06268C38.6763 -0.360742 35.6352 -0.354766 33.1719 1.07762C30.7095 -0.354766 27.6685 -0.360742 25.2001 1.06268C22.7318 2.48609 21.2138 5.11977 21.2188 7.96859V14.3436H16.4375V33.4686H14.8438V30.2811C14.8408 27.6414 12.7021 25.5028 10.0625 25.4998H9.26562V30.5749C9.26562 30.7383 9.21582 30.8987 9.12119 31.0322L7.09613 33.9248C6.94672 34.138 6.70268 34.2655 6.4427 34.2655H4.48438V32.6717H0.5V34.2655H2.89062V47.0155H0.5V48.6092H4.48438V46.2186H7.08518L10.2727 47.8123H16.4375V50.9998H51.5V14.3436H45.125ZM37.1562 1.59359C40.6754 1.59758 43.5273 4.44939 43.5312 7.96859V14.3436H37.1562V7.96859C37.1553 5.75129 36.2269 3.63658 34.5963 2.13447C35.4021 1.77787 36.2747 1.59359 37.1562 1.59359ZM33.1719 3.00008C34.682 4.20635 35.5625 6.03518 35.5625 7.96859V14.3436H30.7812V7.96859C30.7812 6.03518 31.6618 4.20635 33.1719 3.00008ZM22.8125 7.96859C22.8105 5.81603 23.8962 3.80691 25.6982 2.62953C27.5011 1.45215 29.7762 1.26588 31.7465 2.13348C30.1159 3.63559 29.1885 5.75129 29.1865 7.9676V14.3426H22.8115V7.9676L22.8125 7.96859ZM17.2344 43.0311H15.6406V44.6248H17.2344V45.4217C17.2344 45.862 16.8778 46.2186 16.4375 46.2186H10.6492L7.4617 44.6248H4.48438V35.8592H6.4427C7.22264 35.8592 7.95477 35.4777 8.40201 34.8392L10.4271 31.9466C10.709 31.5441 10.8604 31.066 10.8594 30.5749V27.1942C12.2659 27.5588 13.248 28.8278 13.25 30.2801V35.0613H21.2188C21.659 35.0613 22.0156 35.4179 22.0156 35.8582C22.0156 36.2985 21.659 36.6551 21.2188 36.6551H17.2344V38.2488H20.4219V39.0457C20.4219 39.486 20.0653 39.8426 19.625 39.8426H15.6406V41.4363H18.8281V42.2332C18.8281 42.6735 18.4715 43.0301 18.0312 43.0301H17.2344V43.0311ZM40.3438 49.4061H18.0312V47.1908C18.5363 46.7405 18.8261 46.0981 18.8281 45.4217V44.4884C19.7824 44.1497 20.4209 43.2472 20.4219 42.2342V41.3009C21.3761 40.9622 22.0146 40.0597 22.0156 39.0467V38.1134C23.1143 37.7259 23.7727 36.6033 23.5765 35.4548C23.3793 34.3073 22.3842 33.4676 21.2188 33.4686H18.0312V15.9373H21.2188V19.1248H19.625V20.7186H24.4062V19.1248H22.8125V15.9373H35.5625V19.1248H33.9688V20.7186H38.75V19.1248H37.1562V15.9373H40.3438V49.4061ZM41.9375 15.9373H45.125V43.5809L41.9375 48.2168V15.9373ZM43.0531 49.4061L45.9488 45.1936L49.1094 49.4061H43.0531ZM49.9062 47.8123L46.7188 43.563V15.9373H49.9062V47.8123Z"/>
</mask>
<path d="M45.125 14.3436V7.96859C45.13 5.11977 43.6109 2.48609 41.1436 1.06268C38.6763 -0.360742 35.6352 -0.354766 33.1719 1.07762C30.7095 -0.354766 27.6685 -0.360742 25.2001 1.06268C22.7318 2.48609 21.2138 5.11977 21.2188 7.96859V14.3436H16.4375V33.4686H14.8438V30.2811C14.8408 27.6414 12.7021 25.5028 10.0625 25.4998H9.26562V30.5749C9.26562 30.7383 9.21582 30.8987 9.12119 31.0322L7.09613 33.9248C6.94672 34.138 6.70268 34.2655 6.4427 34.2655H4.48438V32.6717H0.5V34.2655H2.89062V47.0155H0.5V48.6092H4.48438V46.2186H7.08518L10.2727 47.8123H16.4375V50.9998H51.5V14.3436H45.125ZM37.1562 1.59359C40.6754 1.59758 43.5273 4.44939 43.5312 7.96859V14.3436H37.1562V7.96859C37.1553 5.75129 36.2269 3.63658 34.5963 2.13447C35.4021 1.77787 36.2747 1.59359 37.1562 1.59359ZM33.1719 3.00008C34.682 4.20635 35.5625 6.03518 35.5625 7.96859V14.3436H30.7812V7.96859C30.7812 6.03518 31.6618 4.20635 33.1719 3.00008ZM22.8125 7.96859C22.8105 5.81603 23.8962 3.80691 25.6982 2.62953C27.5011 1.45215 29.7762 1.26588 31.7465 2.13348C30.1159 3.63559 29.1885 5.75129 29.1865 7.9676V14.3426H22.8115V7.9676L22.8125 7.96859ZM17.2344 43.0311H15.6406V44.6248H17.2344V45.4217C17.2344 45.862 16.8778 46.2186 16.4375 46.2186H10.6492L7.4617 44.6248H4.48438V35.8592H6.4427C7.22264 35.8592 7.95477 35.4777 8.40201 34.8392L10.4271 31.9466C10.709 31.5441 10.8604 31.066 10.8594 30.5749V27.1942C12.2659 27.5588 13.248 28.8278 13.25 30.2801V35.0613H21.2188C21.659 35.0613 22.0156 35.4179 22.0156 35.8582C22.0156 36.2985 21.659 36.6551 21.2188 36.6551H17.2344V38.2488H20.4219V39.0457C20.4219 39.486 20.0653 39.8426 19.625 39.8426H15.6406V41.4363H18.8281V42.2332C18.8281 42.6735 18.4715 43.0301 18.0312 43.0301H17.2344V43.0311ZM40.3438 49.4061H18.0312V47.1908C18.5363 46.7405 18.8261 46.0981 18.8281 45.4217V44.4884C19.7824 44.1497 20.4209 43.2472 20.4219 42.2342V41.3009C21.3761 40.9622 22.0146 40.0597 22.0156 39.0467V38.1134C23.1143 37.7259 23.7727 36.6033 23.5765 35.4548C23.3793 34.3073 22.3842 33.4676 21.2188 33.4686H18.0312V15.9373H21.2188V19.1248H19.625V20.7186H24.4062V19.1248H22.8125V15.9373H35.5625V19.1248H33.9688V20.7186H38.75V19.1248H37.1562V15.9373H40.3438V49.4061ZM41.9375 15.9373H45.125V43.5809L41.9375 48.2168V15.9373ZM43.0531 49.4061L45.9488 45.1936L49.1094 49.4061H43.0531ZM49.9062 47.8123L46.7188 43.563V15.9373H49.9062V47.8123Z" fill="#645754" stroke="white" stroke-width="0.8" mask="url(#path-3-inside-1_1_125)"/>
<path d="M29.1875 24.1428L29.0688 24.0553C27.0625 22.5762 24.2339 23.0999 22.5846 25.0149L29.1875 24.1428ZM29.1875 24.1428L29.3061 24.0554M29.1875 24.1428L29.3061 24.0554M29.3061 24.0554C31.3136 22.5762 34.1402 23.1 35.7884 25.0149L35.7885 25.0149C37.4265 26.9169 37.3223 29.7588 35.5494 31.5355L29.1865 37.8984M29.3061 24.0554L29.1865 37.8984M29.1865 37.8984L22.8236 31.5355C21.0508 29.7589 20.9474 26.917 22.5845 25.0149L29.1865 37.8984ZM29.0461 36.0695L29.189 36.2125L29.3304 36.068L34.6409 30.6414C34.6412 30.6411 34.6414 30.6408 34.6417 30.6406C36.0435 29.238 36.1217 27.0045 34.7088 25.5917C33.3009 24.1838 31.0188 24.1838 29.6109 25.5917L29.1877 26.0148L28.7654 25.5969L28.7654 25.5969L28.7625 25.5941C27.3461 24.2484 25.1146 24.2758 23.732 25.6574C22.3494 27.0389 22.3198 29.2704 23.6645 30.6879L23.6644 30.6879L23.6682 30.6916L29.0461 36.0695Z" fill="#645754" stroke="white" stroke-width="0.4"/>
</g>
<defs>
<clipPath id="clip0_1_125">
<rect width="51" height="51" fill="white" transform="translate(0.5)"/>
</clipPath>
</defs>
</svg>
