<svg width="152" height="34" viewBox="0 0 152 34" fill="none" xmlns="http://www.w3.org/2000/svg">
<path d="M130.073 6.32617H144.731L151.999 19.079L144.731 31.709H130.073L137.457 19.0208L130.073 6.32617Z" fill="#273ECD"/>
<path d="M137.451 19.0217L144.577 31.5093L135.508 22.3627L137.451 19.0217Z" fill="#0C213C"/>
<path d="M45.9893 26.6932C45.9311 26.6447 45.8987 26.567 45.8987 26.4668V26.3827C45.8987 26.2824 45.9311 26.2145 45.9893 26.1563C46.0475 26.1077 46.1381 26.0819 46.2383 26.0819C46.455 26.0819 46.565 26.1821 46.565 26.3827V26.4668C46.565 26.567 46.5391 26.6349 46.4809 26.6932C46.4227 26.7417 46.3386 26.7675 46.2383 26.7675C46.1284 26.7675 46.0475 26.7417 45.9893 26.6932ZM46.4162 31.4379C46.3742 31.4799 46.316 31.5058 46.2416 31.5058C46.1737 31.5058 46.1154 31.4799 46.0669 31.4379C46.0184 31.3958 45.999 31.3376 45.999 31.2632V27.5535C45.999 27.4856 46.0249 27.4274 46.0669 27.3788C46.109 27.3368 46.1672 27.3109 46.2416 27.3109C46.3095 27.3109 46.3677 27.3368 46.4162 27.3788C46.4648 27.4209 46.4842 27.4791 46.4842 27.5535V31.2632C46.4842 31.3312 46.4583 31.3894 46.4162 31.4379Z" fill="#004392"/>
<path d="M50.7837 27.7235C51.0166 28.0145 51.133 28.4091 51.133 28.8943V31.265C51.133 31.3329 51.1071 31.3912 51.0586 31.4397C51.0101 31.4817 50.9487 31.5076 50.8904 31.5076C50.8225 31.5076 50.7643 31.4817 50.7158 31.4397C50.6738 31.3976 50.6479 31.3394 50.6479 31.265V28.9169C50.6479 28.5676 50.5573 28.283 50.3891 28.0663C50.2145 27.8496 49.946 27.7396 49.5806 27.7396C49.3477 27.7396 49.131 27.7881 48.9208 27.8981C48.7105 28.0081 48.5456 28.1472 48.4194 28.3315C48.2933 28.5159 48.2286 28.7067 48.2286 28.9169V31.265C48.2286 31.3329 48.2027 31.3912 48.1607 31.4397C48.1122 31.4817 48.0604 31.5076 47.986 31.5076C47.9181 31.5076 47.8599 31.4817 47.8114 31.4397C47.7694 31.3976 47.7435 31.3394 47.7435 31.265V27.6491C47.7435 27.5811 47.7694 27.5229 47.8114 27.4744C47.8599 27.4324 47.9117 27.4065 47.986 27.4065C48.054 27.4065 48.1122 27.4324 48.1607 27.4744C48.2027 27.5165 48.2286 27.5747 48.2286 27.6491V28.0922C48.3709 27.8593 48.5779 27.6652 48.8561 27.5165C49.1245 27.3677 49.4059 27.2836 49.6905 27.2836C50.1821 27.2933 50.5509 27.4324 50.7837 27.7267V27.7235Z" fill="#004392"/>
<path d="M53.2055 27.8478V30.5549C53.2055 30.7555 53.2378 30.8978 53.3219 30.9722C53.3963 31.0465 53.4966 31.0821 53.6227 31.0821C53.655 31.0821 53.6971 31.0724 53.7391 31.0659C53.7876 31.0498 53.8232 31.0498 53.8556 31.0498C53.9041 31.0498 53.9461 31.0659 53.9817 31.108C54.0173 31.15 54.0302 31.1921 54.0302 31.2503C54.0302 31.3247 53.9882 31.3926 53.9041 31.4411C53.82 31.4896 53.7133 31.5155 53.5936 31.5155C53.4513 31.5155 53.3187 31.4993 53.2087 31.4735C53.0923 31.4476 52.9823 31.3635 52.8821 31.2309C52.7721 31.0983 52.7236 30.8816 52.7236 30.5873V27.864H52.1317C52.0638 27.864 52.0152 27.8381 51.9635 27.7961C51.9118 27.754 51.8956 27.6958 51.8956 27.6376C51.8956 27.5697 51.9215 27.5212 51.9635 27.4791C52.0055 27.4371 52.0638 27.4112 52.1317 27.4112H52.7236V26.5185C52.7236 26.4506 52.7494 26.3924 52.7915 26.3439C52.8335 26.3018 52.8918 26.2759 52.9661 26.2759C53.0341 26.2759 53.0923 26.3018 53.1408 26.3439C53.1828 26.3859 53.2087 26.4441 53.2087 26.5185V27.4112H54.0173C54.0755 27.4112 54.1273 27.4371 54.1758 27.4856C54.2243 27.5341 54.2437 27.5858 54.2437 27.6441C54.2437 27.712 54.2178 27.7605 54.1758 27.8025C54.1337 27.8446 54.0755 27.8608 54.0173 27.8608H53.199V27.8446L53.2055 27.8478Z" fill="#004392"/>
<path d="M58.5102 29.3704C58.4617 29.4124 58.4003 29.4383 58.342 29.4383H55.2921C55.2921 29.765 55.36 30.0496 55.4926 30.3084C55.6252 30.5671 55.8096 30.7676 56.0618 30.9099C56.3044 31.0587 56.5955 31.1363 56.9319 31.1363C57.1906 31.1363 57.4235 31.0878 57.624 30.9779C57.8245 30.8679 57.9927 30.7353 58.1156 30.5671C58.1739 30.5186 58.2321 30.4927 58.2838 30.4927C58.3356 30.4927 58.3841 30.5186 58.4261 30.5606C58.4682 30.6027 58.494 30.6512 58.494 30.7029C58.494 30.7611 58.4682 30.8194 58.41 30.8711C58.2353 31.0814 58.0186 31.256 57.7599 31.3886C57.5011 31.5212 57.2262 31.5891 56.9319 31.5891C56.5146 31.5891 56.1556 31.4986 55.8387 31.3207C55.5217 31.1428 55.2694 30.8938 55.0948 30.5768C54.9201 30.2598 54.8264 29.8847 54.8264 29.4674C54.8264 29.0243 54.9169 28.6395 55.0851 28.3063C55.2597 27.9732 55.4958 27.7209 55.7869 27.5463C56.078 27.3716 56.3885 27.2875 56.7152 27.2875C57.0418 27.2875 57.3426 27.3619 57.624 27.5139C57.9086 27.6627 58.135 27.8826 58.3162 28.1737C58.4908 28.4648 58.5846 28.8076 58.5911 29.2087C58.5814 29.2766 58.5587 29.3348 58.507 29.3769L58.5102 29.3704ZM55.8451 28.0767C55.5767 28.2934 55.4117 28.6039 55.3341 29.0049H58.0833V28.937C58.0574 28.6944 57.9733 28.4874 57.8407 28.3031C57.7081 28.1187 57.5399 27.9861 57.3394 27.8923C57.1389 27.7985 56.9286 27.75 56.7119 27.75C56.395 27.7597 56.1104 27.8664 55.8419 28.0767H55.8451Z" fill="#004392"/>
<path d="M61.8009 27.3483C61.885 27.3903 61.927 27.4582 61.927 27.5391C61.927 27.6135 61.9012 27.6717 61.8591 27.7235C61.8171 27.7655 61.7685 27.7914 61.7103 27.7914C61.6845 27.7914 61.6262 27.7752 61.5518 27.7493C61.4775 27.7235 61.4031 27.7073 61.3254 27.7073C61.1249 27.7073 60.9341 27.7817 60.7336 27.9402C60.533 28.0889 60.3746 28.2895 60.2484 28.532C60.1223 28.7746 60.0576 29.0172 60.0576 29.2662V31.2618C60.0576 31.3297 60.0317 31.3879 59.9897 31.4364C59.9412 31.4785 59.8894 31.5044 59.815 31.5044C59.7406 31.5044 59.6889 31.4785 59.6404 31.4364C59.5983 31.3944 59.5725 31.3362 59.5725 31.2618V27.6458C59.5725 27.5779 59.5983 27.5197 59.6404 27.4712C59.6889 27.4291 59.7406 27.4033 59.815 27.4033C59.8894 27.4033 59.9412 27.4291 59.9897 27.4712C60.0317 27.5132 60.0576 27.5715 60.0576 27.6458V28.3542C60.1837 28.0437 60.3681 27.7946 60.6171 27.5941C60.8662 27.3936 61.1605 27.2836 61.5033 27.2836C61.6198 27.2836 61.72 27.2998 61.8041 27.3418L61.8009 27.3483Z" fill="#004392"/>
<path d="M65.7376 27.7235C65.9704 28.0145 66.0869 28.4091 66.0869 28.8943V31.265C66.0869 31.3329 66.061 31.3912 66.0125 31.4397C65.964 31.4817 65.9025 31.5076 65.8443 31.5076C65.7764 31.5076 65.7182 31.4817 65.6696 31.4397C65.6276 31.3976 65.6017 31.3394 65.6017 31.265V28.9169C65.6017 28.5676 65.5112 28.283 65.343 28.0663C65.1683 27.8496 64.8999 27.7396 64.5344 27.7396C64.3015 27.7396 64.0848 27.7881 63.8746 27.8981C63.6644 28.0081 63.4994 28.1472 63.3733 28.3315C63.2472 28.5159 63.1825 28.7067 63.1825 28.9169V31.265C63.1825 31.3329 63.1566 31.3912 63.1146 31.4397C63.066 31.4817 63.0143 31.5076 62.9399 31.5076C62.8655 31.5076 62.8138 31.4817 62.7652 31.4397C62.7232 31.3976 62.6973 31.3394 62.6973 31.265V27.6491C62.6973 27.5811 62.7232 27.5229 62.7652 27.4744C62.8138 27.4324 62.8655 27.4065 62.9399 27.4065C63.0143 27.4065 63.066 27.4324 63.1146 27.4744C63.1566 27.5165 63.1825 27.5747 63.1825 27.6491V28.0922C63.3248 27.8593 63.5318 27.6652 63.8099 27.5165C64.0784 27.3677 64.3598 27.2836 64.6444 27.2836C65.136 27.2933 65.5047 27.4324 65.7376 27.7267V27.7235Z" fill="#004392"/>
<path d="M70.8727 27.4536C70.9148 27.5022 70.9406 27.5636 70.9406 27.6283V31.2604C70.9406 31.3283 70.9148 31.3866 70.8727 31.4351C70.8242 31.4771 70.7725 31.503 70.6981 31.503C70.6301 31.503 70.5719 31.4771 70.5234 31.4351C70.4749 31.393 70.4555 31.3348 70.4555 31.2604V30.7171C70.3229 30.9596 70.1224 31.1601 69.8539 31.3283C69.5855 31.4965 69.2944 31.5774 68.9774 31.5774C68.6184 31.5774 68.2918 31.4868 68.0071 31.2928C67.7225 31.1019 67.4896 30.8497 67.3312 30.5165C67.163 30.1899 67.0886 29.8244 67.0886 29.4136C67.0886 29.0029 67.1727 28.6374 67.3376 28.3107C67.5058 27.9841 67.729 27.735 68.0233 27.5507C68.3079 27.3663 68.6346 27.2758 68.9839 27.2758C69.3106 27.2758 69.6016 27.3501 69.8701 27.5086C70.1385 27.6671 70.3391 27.8676 70.4717 28.1199V27.6186C70.4717 27.5507 70.4975 27.4925 70.5396 27.4439C70.5816 27.3954 70.6399 27.3695 70.7143 27.3695C70.7725 27.3792 70.8307 27.4019 70.8727 27.4536ZM69.7795 30.9111C70.0059 30.7623 70.1806 30.5618 70.3067 30.2998C70.4329 30.0411 70.4975 29.75 70.4975 29.4233C70.4975 29.0967 70.4296 28.8315 70.3067 28.5727C70.1838 28.314 70.0059 28.1134 69.7795 27.9614C69.5531 27.8094 69.3041 27.735 69.0292 27.735C68.7543 27.735 68.4955 27.8094 68.2788 27.9517C68.0524 28.094 67.8778 28.2946 67.7516 28.5533C67.6255 28.8121 67.5608 29.0967 67.5608 29.4233C67.5608 29.75 67.619 30.0411 67.7451 30.2998C67.8713 30.5586 68.0459 30.7688 68.2626 30.9111C68.489 31.0599 68.7381 31.1375 69.0227 31.1375C69.3073 31.1278 69.5564 31.0631 69.7828 30.9111H69.7795Z" fill="#004392"/>
<path d="M73.0152 27.8478V30.5549C73.0152 30.7555 73.0476 30.8978 73.1316 30.9722C73.206 31.0465 73.3063 31.0821 73.4324 31.0821C73.4648 31.0821 73.5068 31.0724 73.5489 31.0659C73.5974 31.0498 73.633 31.0498 73.6653 31.0498C73.7138 31.0498 73.7559 31.0659 73.7914 31.108C73.827 31.15 73.84 31.1921 73.84 31.2503C73.84 31.3247 73.7979 31.3926 73.7138 31.4411C73.6297 31.4896 73.523 31.5155 73.4033 31.5155C73.261 31.5155 73.1284 31.4993 73.0185 31.4735C72.902 31.4476 72.792 31.3635 72.6918 31.2309C72.5818 31.0983 72.5333 30.8816 72.5333 30.5873V27.864H71.9414C71.8735 27.864 71.825 27.8381 71.7732 27.7961C71.7215 27.754 71.7053 27.6958 71.7053 27.6376C71.7053 27.5697 71.7312 27.5212 71.7732 27.4791C71.8153 27.4371 71.8735 27.4112 71.9414 27.4112H72.5333V26.5185C72.5333 26.4506 72.5592 26.3924 72.6012 26.3439C72.6433 26.3018 72.7015 26.2759 72.7759 26.2759C72.8438 26.2759 72.902 26.3018 72.9505 26.3439C72.9926 26.3859 73.0185 26.4441 73.0185 26.5185V27.4112H73.827C73.8852 27.4112 73.937 27.4371 73.9855 27.4856C74.0276 27.5341 74.0534 27.5858 74.0534 27.6441C74.0534 27.712 74.0276 27.7605 73.9855 27.8025C73.9435 27.8446 73.8852 27.8608 73.827 27.8608H73.0087V27.8446L73.0152 27.8478Z" fill="#004392"/>
<path d="M74.9188 26.6932C74.8605 26.6447 74.8282 26.567 74.8282 26.4668V26.3827C74.8282 26.2824 74.8605 26.2145 74.9188 26.1563C74.977 26.1077 75.0675 26.0819 75.1678 26.0819C75.3845 26.0819 75.4945 26.1821 75.4945 26.3827V26.4668C75.4945 26.567 75.4686 26.6349 75.4104 26.6932C75.3522 26.7417 75.2681 26.7675 75.1678 26.7675C75.0578 26.7675 74.977 26.7417 74.9188 26.6932ZM75.3457 31.4379C75.3036 31.4799 75.2454 31.5058 75.171 31.5058C75.1031 31.5058 75.0449 31.4799 74.9964 31.4379C74.9479 31.3958 74.9285 31.3376 74.9285 31.2632V27.5535C74.9285 27.4856 74.9543 27.4274 74.9964 27.3788C75.0384 27.3368 75.0967 27.3109 75.171 27.3109C75.239 27.3109 75.2972 27.3368 75.3457 27.3788C75.3942 27.4209 75.4136 27.4791 75.4136 27.5535V31.2632C75.4136 31.3312 75.3877 31.3894 75.3457 31.4379Z" fill="#004392"/>
<path d="M80.2109 30.5367C80.0363 30.8634 79.784 31.1221 79.4767 31.3065C79.1695 31.4908 78.817 31.5814 78.4321 31.5814C78.0472 31.5814 77.7043 31.4908 77.3874 31.3065C77.0769 31.1221 76.8279 30.8634 76.6532 30.5367C76.4786 30.21 76.3848 29.8446 76.3848 29.4435C76.3848 29.0425 76.4753 28.6738 76.6532 28.3503C76.8279 28.0237 77.0801 27.7649 77.3874 27.5741C77.6946 27.3833 78.0472 27.2895 78.4321 27.2895C78.817 27.2895 79.1598 27.38 79.4767 27.5741C79.7872 27.7649 80.0363 28.0172 80.2109 28.3503C80.3856 28.677 80.4794 29.0425 80.4794 29.4435C80.4794 29.8446 80.3888 30.2133 80.2109 30.5367ZM79.784 28.567C79.6514 28.3083 79.467 28.1077 79.2245 27.9557C78.9819 27.8037 78.7232 27.7293 78.4321 27.7293C78.141 27.7293 77.8822 27.8037 77.6397 27.9557C77.4068 28.1045 77.2127 28.305 77.0801 28.567C76.9475 28.8258 76.8699 29.1168 76.8699 29.437C76.8699 29.7572 76.9378 30.0386 77.0801 30.2974C77.2127 30.5561 77.4068 30.7566 77.6397 30.9086C77.8725 31.0607 78.141 31.1351 78.4321 31.1351C78.7232 31.1351 78.9819 31.0607 79.2245 30.9184C79.467 30.776 79.6514 30.569 79.784 30.3168C79.9166 30.058 79.9845 29.767 79.9845 29.4468C79.9845 29.1201 79.9166 28.829 79.784 28.5703V28.567Z" fill="#004392"/>
<path d="M84.5142 27.7235C84.7471 28.0145 84.8635 28.4091 84.8635 28.8943V31.265C84.8635 31.3329 84.8376 31.3912 84.7891 31.4397C84.7406 31.4817 84.6791 31.5076 84.6209 31.5076C84.553 31.5076 84.4948 31.4817 84.4463 31.4397C84.4042 31.3976 84.3783 31.3394 84.3783 31.265V28.9169C84.3783 28.5676 84.2878 28.283 84.1196 28.0663C83.9449 27.8496 83.6765 27.7396 83.311 27.7396C83.0781 27.7396 82.8614 27.7881 82.6512 27.8981C82.441 28.0081 82.276 28.1472 82.1499 28.3315C82.0238 28.5159 81.9591 28.7067 81.9591 28.9169V31.265C81.9591 31.3329 81.9332 31.3912 81.8911 31.4397C81.8426 31.4817 81.7909 31.5076 81.7165 31.5076C81.6486 31.5076 81.5904 31.4817 81.5419 31.4397C81.4998 31.3976 81.4739 31.3394 81.4739 31.265V27.6491C81.4739 27.5811 81.4998 27.5229 81.5419 27.4744C81.5904 27.4324 81.6421 27.4065 81.7165 27.4065C81.7844 27.4065 81.8426 27.4324 81.8911 27.4744C81.9332 27.5165 81.9591 27.5747 81.9591 27.6491V28.0922C82.1014 27.8593 82.3084 27.6652 82.5865 27.5165C82.855 27.3677 83.1364 27.2836 83.421 27.2836C83.9126 27.2933 84.2813 27.4324 84.5142 27.7267V27.7235Z" fill="#004392"/>
<path d="M89.6493 27.4536C89.6914 27.5022 89.7172 27.5636 89.7172 27.6283V31.2604C89.7172 31.3283 89.6914 31.3866 89.6493 31.4351C89.6008 31.4771 89.5491 31.503 89.4747 31.503C89.4068 31.503 89.3485 31.4771 89.3 31.4351C89.2515 31.393 89.2321 31.3348 89.2321 31.2604V30.7171C89.0995 30.9596 88.899 31.1601 88.6305 31.3283C88.3621 31.4965 88.071 31.5774 87.754 31.5774C87.395 31.5774 87.0684 31.4868 86.7837 31.2928C86.4991 31.0987 86.2663 30.8497 86.1078 30.5165C85.9396 30.1899 85.8652 29.8244 85.8652 29.4136C85.8652 29.0029 85.9493 28.6374 86.1142 28.3107C86.2824 27.9841 86.5056 27.735 86.7999 27.5507C87.0845 27.3663 87.4112 27.2758 87.7605 27.2758C88.0872 27.2758 88.3782 27.3501 88.6467 27.5086C88.9151 27.6671 89.1157 27.8676 89.2483 28.1199V27.6186C89.2483 27.5507 89.2742 27.4925 89.3162 27.4439C89.3582 27.3954 89.4165 27.3695 89.4908 27.3695C89.5491 27.3792 89.6073 27.4019 89.6493 27.4536ZM88.5561 30.9111C88.7825 30.7623 88.9572 30.5618 89.0833 30.2998C89.2095 30.0411 89.2741 29.75 89.2741 29.4233C89.2741 29.0967 89.2062 28.8315 89.0833 28.5727C88.9604 28.314 88.7825 28.1134 88.5561 27.9614C88.3297 27.8126 88.0807 27.735 87.8058 27.735C87.5309 27.735 87.2721 27.8094 87.0554 27.9517C86.829 28.094 86.6544 28.2946 86.5282 28.5533C86.4021 28.8121 86.3374 29.0967 86.3374 29.4233C86.3374 29.75 86.3956 30.0411 86.5218 30.2998C86.6479 30.5586 86.8226 30.7688 87.0393 30.9111C87.2657 31.0599 87.5147 31.1375 87.7993 31.1375C88.0839 31.1278 88.333 31.0631 88.5594 30.9111H88.5561Z" fill="#004392"/>
<path d="M91.4598 31.4388C91.4113 31.4808 91.3595 31.5067 91.2852 31.5067C91.2172 31.5067 91.159 31.4808 91.1105 31.4388C91.0685 31.3968 91.0426 31.3385 91.0426 31.2642V25.7755C91.0426 25.7076 91.0685 25.6494 91.1105 25.6009C91.1526 25.5588 91.2108 25.533 91.2852 25.533C91.3531 25.533 91.4113 25.5588 91.4598 25.6009C91.5019 25.6429 91.5277 25.7011 91.5277 25.7755V31.2642C91.5277 31.3321 91.5019 31.3903 91.4598 31.4388Z" fill="#004392"/>
<path d="M94.747 30.6692C94.747 30.6013 94.7794 30.5431 94.857 30.5107C94.8893 30.4784 94.9314 30.4622 94.9831 30.4622C95.0511 30.4622 95.1093 30.4881 95.1578 30.5463C95.4747 30.9635 95.9017 31.1738 96.4289 31.1738C96.6876 31.1738 96.914 31.1155 97.1048 30.9894C97.2957 30.8633 97.3895 30.6886 97.3895 30.4622C97.3895 30.2358 97.2989 30.0709 97.121 29.9512C96.9431 29.8315 96.6941 29.741 96.3771 29.6601C95.9276 29.5437 95.5847 29.4014 95.326 29.217C95.0769 29.0327 94.9508 28.7739 94.9508 28.4246C94.9508 28.2079 95.009 28.0074 95.1351 27.8327C95.2613 27.6581 95.4262 27.5222 95.6365 27.422C95.8467 27.3217 96.086 27.2797 96.3545 27.2797C96.5873 27.2797 96.8234 27.3217 97.0563 27.4123C97.2892 27.5028 97.4897 27.6451 97.6579 27.8392C97.7064 27.8715 97.7323 27.9297 97.7323 27.9977C97.7323 28.0656 97.7064 28.1238 97.6482 28.1659C97.6062 28.1982 97.5641 28.2144 97.5059 28.2144C97.4574 28.2144 97.4056 28.1885 97.3636 28.1465C97.2374 28.0041 97.079 27.8877 96.9043 27.8133C96.7297 27.7389 96.5356 27.6969 96.3286 27.6969C96.0796 27.6969 95.8596 27.7551 95.6785 27.8715C95.4941 27.988 95.4101 28.1626 95.4101 28.4052C95.4198 28.6219 95.52 28.7804 95.7011 28.8968C95.8823 29.0133 96.1604 29.1135 96.5194 29.2073C96.7943 29.2752 97.0305 29.3561 97.2116 29.4402C97.3959 29.5243 97.5447 29.6504 97.6611 29.7992C97.7776 29.9577 97.8358 30.1582 97.8358 30.4169C97.8358 30.7662 97.6935 31.0444 97.4186 31.2514C97.1436 31.4584 96.7911 31.5619 96.3739 31.5619C95.7141 31.5619 95.1966 31.3193 94.8117 30.8277C94.7697 30.7792 94.7438 30.7177 94.7438 30.6692H94.747Z" fill="#004392"/>
<path d="M101.791 27.8067C102.023 28.1075 102.15 28.4988 102.15 28.984V31.2642C102.15 31.3321 102.124 31.3903 102.082 31.4388C102.04 31.4808 101.981 31.5067 101.907 31.5067C101.839 31.5067 101.781 31.4808 101.732 31.4388C101.69 31.3968 101.664 31.3385 101.664 31.2642V28.984C101.664 28.6347 101.58 28.35 101.415 28.1333C101.25 27.9166 100.988 27.8067 100.629 27.8067C100.403 27.8067 100.186 27.8552 99.9858 27.9652C99.7853 28.0751 99.6171 28.2142 99.5007 28.3985C99.3746 28.5829 99.3164 28.7737 99.3164 28.984V31.2642C99.3164 31.3321 99.2905 31.3903 99.2484 31.4388C99.1999 31.4808 99.1482 31.5067 99.0738 31.5067C99.0059 31.5067 98.9476 31.4808 98.8991 31.4388C98.8571 31.3968 98.8312 31.3385 98.8312 31.2642V25.7755C98.8312 25.7076 98.8571 25.6494 98.8991 25.6009C98.9476 25.5588 98.9994 25.533 99.0738 25.533C99.1417 25.533 99.1999 25.5588 99.2484 25.6009C99.2905 25.6429 99.3164 25.7011 99.3164 25.7755V28.1398C99.4587 27.9069 99.6592 27.7226 99.9179 27.5706C100.177 27.4186 100.435 27.3442 100.71 27.3442C101.195 27.3442 101.554 27.5027 101.787 27.8034L101.791 27.8067Z" fill="#004392"/>
<path d="M103.391 26.6932C103.333 26.6447 103.301 26.567 103.301 26.4668V26.3827C103.301 26.2824 103.333 26.2145 103.391 26.1563C103.45 26.1077 103.54 26.0819 103.641 26.0819C103.857 26.0819 103.967 26.1821 103.967 26.3827V26.4668C103.967 26.567 103.941 26.6349 103.883 26.6932C103.825 26.7417 103.741 26.7675 103.641 26.7675C103.531 26.7675 103.45 26.7417 103.391 26.6932ZM103.809 31.4379C103.767 31.4799 103.708 31.5058 103.634 31.5058C103.566 31.5058 103.508 31.4799 103.459 31.4379C103.411 31.3958 103.391 31.3376 103.391 31.2632V27.5535C103.391 27.4856 103.417 27.4274 103.459 27.3788C103.501 27.3368 103.56 27.3109 103.634 27.3109C103.702 27.3109 103.76 27.3368 103.809 27.3788C103.857 27.4209 103.877 27.4791 103.877 27.5535V31.2632C103.886 31.3312 103.86 31.3894 103.809 31.4379Z" fill="#004392"/>
<path d="M108.073 27.6226C108.364 27.807 108.591 28.056 108.759 28.373C108.927 28.6899 109.002 29.0489 109.002 29.45C109.002 29.851 108.918 30.2198 108.759 30.5367C108.591 30.8537 108.368 31.106 108.083 31.2871C107.798 31.4682 107.472 31.562 107.122 31.562C106.812 31.562 106.521 31.4876 106.262 31.3356C106.003 31.1868 105.793 30.9928 105.635 30.7437V32.8719C105.635 32.9398 105.609 32.998 105.567 33.0465C105.518 33.0886 105.467 33.1145 105.392 33.1145C105.324 33.1145 105.266 33.0886 105.217 33.0465C105.175 33.0045 105.15 32.9463 105.15 32.8719V27.6097C105.15 27.5418 105.175 27.4835 105.217 27.435C105.266 27.3865 105.318 27.3606 105.392 27.3606C105.46 27.3606 105.518 27.3865 105.567 27.435C105.609 27.4835 105.635 27.545 105.635 27.6097V28.1595C105.777 27.9105 105.978 27.7099 106.236 27.5676C106.505 27.4253 106.786 27.3509 107.106 27.3509C107.465 27.3412 107.782 27.435 108.077 27.6194L108.073 27.6226ZM107.824 30.8957C108.051 30.7534 108.225 30.5529 108.352 30.3039C108.478 30.0548 108.542 29.7702 108.542 29.4532C108.542 29.1363 108.474 28.8614 108.352 28.6091C108.229 28.3568 108.051 28.166 107.824 28.0172C107.598 27.8749 107.349 27.8005 107.074 27.8005C106.799 27.8005 106.531 27.8684 106.304 28.0107C106.078 28.1531 105.903 28.3439 105.777 28.5962C105.651 28.8484 105.593 29.1298 105.593 29.4468C105.593 29.7637 105.651 30.0483 105.777 30.2974C105.903 30.5464 106.078 30.747 106.304 30.8893C106.531 31.0316 106.789 31.106 107.074 31.106C107.349 31.1157 107.601 31.038 107.824 30.8957Z" fill="#004392"/>
<path d="M112.923 27.6226C113.214 27.807 113.441 28.056 113.609 28.373C113.777 28.6899 113.852 29.0489 113.852 29.45C113.852 29.851 113.768 30.2198 113.609 30.5367C113.441 30.8537 113.218 31.106 112.933 31.2871C112.648 31.4682 112.322 31.562 111.972 31.562C111.662 31.562 111.371 31.4876 111.112 31.3356C110.853 31.1868 110.643 30.9928 110.485 30.7437V32.8719C110.485 32.9398 110.459 32.998 110.417 33.0465C110.368 33.0886 110.317 33.1145 110.242 33.1145C110.174 33.1145 110.116 33.0886 110.067 33.0465C110.025 33.0045 110 32.9463 110 32.8719V27.6097C110 27.5418 110.025 27.4835 110.067 27.435C110.116 27.3865 110.168 27.3606 110.242 27.3606C110.31 27.3606 110.368 27.3865 110.417 27.435C110.459 27.4835 110.485 27.545 110.485 27.6097V28.1595C110.627 27.9105 110.828 27.7099 111.086 27.5676C111.355 27.4253 111.636 27.3509 111.956 27.3509C112.315 27.3412 112.642 27.435 112.927 27.6194L112.923 27.6226ZM112.674 30.8957C112.901 30.7534 113.075 30.5529 113.202 30.3039C113.328 30.0548 113.392 29.7702 113.392 29.4532C113.392 29.1363 113.324 28.8614 113.202 28.6091C113.079 28.3568 112.901 28.166 112.674 28.0172C112.448 27.8749 112.199 27.8005 111.924 27.8005C111.649 27.8005 111.381 27.8684 111.154 28.0107C110.928 28.1531 110.753 28.3439 110.627 28.5962C110.501 28.8484 110.443 29.1298 110.443 29.4468C110.443 29.7637 110.501 30.0483 110.627 30.2974C110.753 30.5464 110.928 30.747 111.154 30.8893C111.381 31.0316 111.639 31.106 111.924 31.106C112.199 31.1157 112.451 31.038 112.674 30.8957Z" fill="#004392"/>
<path d="M114.826 26.6932C114.768 26.6447 114.736 26.567 114.736 26.4668V26.3827C114.736 26.2824 114.768 26.2145 114.826 26.1563C114.885 26.1077 114.975 26.0819 115.075 26.0819C115.292 26.0819 115.402 26.1821 115.402 26.3827V26.4668C115.402 26.567 115.376 26.6349 115.318 26.6932C115.26 26.7417 115.176 26.7675 115.075 26.7675C114.965 26.7675 114.885 26.7417 114.826 26.6932ZM115.253 31.4379C115.211 31.4799 115.153 31.5058 115.079 31.5058C115.011 31.5058 114.953 31.4799 114.904 31.4379C114.856 31.3958 114.836 31.3376 114.836 31.2632V27.5535C114.836 27.4856 114.862 27.4274 114.904 27.3788C114.946 27.3368 115.004 27.3109 115.079 27.3109C115.147 27.3109 115.205 27.3368 115.253 27.3788C115.302 27.4209 115.321 27.4791 115.321 27.5535V31.2632C115.321 31.3312 115.305 31.3894 115.253 31.4379Z" fill="#004392"/>
<path d="M119.629 27.7235C119.862 28.0145 119.978 28.4091 119.978 28.8943V31.265C119.978 31.3329 119.952 31.3912 119.904 31.4397C119.855 31.4817 119.794 31.5076 119.735 31.5076C119.667 31.5076 119.609 31.4817 119.561 31.4397C119.519 31.3976 119.493 31.3394 119.493 31.265V28.9169C119.493 28.5676 119.402 28.283 119.234 28.0663C119.059 27.8496 118.791 27.7396 118.425 27.7396C118.193 27.7396 117.976 27.7881 117.766 27.8981C117.555 28.0081 117.391 28.1472 117.264 28.3315C117.138 28.5159 117.074 28.7067 117.074 28.9169V31.265C117.074 31.3329 117.048 31.3912 117.006 31.4397C116.957 31.4817 116.905 31.5076 116.831 31.5076C116.763 31.5076 116.705 31.4817 116.656 31.4397C116.614 31.3976 116.588 31.3394 116.588 31.265V27.6491C116.588 27.5811 116.614 27.5229 116.656 27.4744C116.705 27.4324 116.757 27.4065 116.831 27.4065C116.899 27.4065 116.957 27.4324 117.006 27.4744C117.048 27.5165 117.074 27.5747 117.074 27.6491V28.0922C117.216 27.8593 117.423 27.6652 117.701 27.5165C117.969 27.3677 118.251 27.2836 118.535 27.2836C119.027 27.2933 119.396 27.4324 119.629 27.7267V27.7235Z" fill="#004392"/>
<path d="M124.9 27.4539C124.943 27.496 124.968 27.5639 124.968 27.6383V31.1281C124.968 31.5453 124.884 31.9043 124.71 32.2051C124.535 32.5059 124.292 32.7323 123.992 32.8908C123.691 33.0493 123.342 33.1237 122.947 33.1237C122.756 33.1237 122.562 33.0978 122.355 33.0493C122.148 33.0008 121.97 32.9393 121.821 32.8649C121.673 32.7905 121.589 32.7161 121.572 32.6321C121.53 32.5997 121.514 32.548 121.514 32.5059C121.514 32.4574 121.54 32.4056 121.589 32.3798C121.614 32.3636 121.637 32.3539 121.673 32.3539C121.708 32.3539 121.763 32.3701 121.857 32.4121L122.025 32.4865C122.358 32.6126 122.669 32.6773 122.96 32.6773C123.435 32.6773 123.81 32.5447 124.089 32.2666C124.357 31.9917 124.499 31.6327 124.499 31.1637V30.6624C124.367 30.9534 124.15 31.1798 123.865 31.348C123.574 31.5162 123.274 31.5906 122.957 31.5906C122.588 31.5906 122.248 31.5 121.954 31.3157C121.653 31.1313 121.42 30.8726 121.252 30.5459C121.078 30.2193 120.993 29.8538 120.993 29.443C120.993 29.0323 121.078 28.6733 121.252 28.3498C121.427 28.0264 121.663 27.7644 121.954 27.5801C122.255 27.3957 122.588 27.3051 122.947 27.3051C123.306 27.3051 123.597 27.3892 123.882 27.5542C124.166 27.7224 124.373 27.9294 124.509 28.1655V27.648C124.509 27.5801 124.535 27.5218 124.577 27.4733C124.626 27.4248 124.677 27.399 124.752 27.399C124.81 27.3731 124.868 27.3989 124.91 27.4475L124.9 27.4539ZM123.772 30.9211C124.005 30.7788 124.189 30.5783 124.322 30.3195C124.454 30.0608 124.522 29.76 124.522 29.4333C124.522 29.1067 124.454 28.8156 124.322 28.5568C124.189 28.2981 124.005 28.0976 123.772 27.9552C123.539 27.8129 123.27 27.7386 122.979 27.7386C122.688 27.7386 122.429 27.8129 122.193 27.965C121.96 28.1137 121.776 28.3143 121.644 28.5762C121.511 28.835 121.443 29.1196 121.443 29.4366C121.443 29.7535 121.511 30.0478 121.644 30.3066C121.776 30.5653 121.96 30.7659 122.193 30.9179C122.426 31.0667 122.685 31.1443 122.979 31.1443C123.27 31.1346 123.539 31.0699 123.772 30.9276V30.9211Z" fill="#004392"/>
<path d="M12.9016 6.04886H16.7181V21.1078H12.9016V19.5294C11.3395 20.8652 9.65115 21.5412 7.84964 21.5412C5.57916 21.5412 3.70003 20.7908 2.21225 19.2869C0.734176 17.7506 0 15.8359 0 13.5395C0 11.2431 0.734176 9.40607 2.21225 7.89241C3.69033 6.38846 5.53712 5.63809 7.74938 5.63809C9.66086 5.63809 11.3815 6.35611 12.9016 7.80184V6.04886ZM3.89086 13.533C3.89086 14.9788 4.31778 16.1463 5.16194 17.0584C6.03197 17.977 7.12516 18.4362 8.43505 18.4362C9.83874 18.4362 10.9837 17.9931 11.844 17.1069C12.714 16.1884 13.1474 15.0273 13.1474 13.6171C13.1474 12.207 12.714 11.0459 11.844 10.1273C10.974 9.23464 9.84844 8.78185 8.47062 8.78185C7.1672 8.78185 6.07401 9.2314 5.19751 10.1435C4.32101 11.0523 3.8941 12.1908 3.8941 13.533H3.89086Z" fill="#F24822"/>
<path d="M22.2397 0V21.1071H18.4394V0H22.2397Z" fill="#F24822"/>
<path d="M23.9853 6.04886H27.7856V7.44284C28.5198 6.741 29.1375 6.26555 29.655 6.02298C30.2048 5.76423 30.9002 5.63809 31.7347 5.63809C33.5879 5.63809 35.0595 6.38199 36.143 7.86653C37.3365 6.37875 38.9504 5.63809 40.988 5.63809C44.6881 5.63809 46.5413 7.69187 46.5413 11.8027V21.1078H42.7248V12.7471C42.7248 11.3014 42.534 10.2826 42.1491 9.69069C41.7578 9.0794 41.1044 8.78185 40.2021 8.78185C39.1574 8.78185 38.3909 9.14085 37.9122 9.86857C37.4367 10.5866 37.1942 11.7477 37.1942 13.3422V21.1175H33.3777V12.7988C33.3777 10.1176 32.5335 8.78185 30.8485 8.78185C29.7779 8.78185 29.0017 9.15056 28.5101 9.87504C28.0184 10.6092 27.7759 11.7639 27.7759 13.3422V21.1175H23.9756V6.04886H23.9853Z" fill="#F24822"/>
<path d="M60.3862 6.04886H64.2027V21.1078H60.3862V19.5294C58.824 20.8652 57.1357 21.5412 55.3342 21.5412C53.0637 21.5412 51.1846 20.7908 49.6968 19.2869C48.2187 17.7506 47.4845 15.8359 47.4845 13.5395C47.4845 11.2431 48.2187 9.40607 49.6968 7.89241C51.1749 6.38846 53.0217 5.63809 55.2339 5.63809C57.1454 5.63809 58.8661 6.35611 60.3862 7.80184V6.04886ZM51.3754 13.533C51.3754 14.9788 51.8024 16.1463 52.6465 17.0584C53.5165 17.977 54.6097 18.4362 55.9196 18.4362C57.3233 18.4362 58.4682 17.9931 59.3286 17.1069C60.1986 16.1884 60.632 15.0273 60.632 13.6171C60.632 12.207 60.1986 11.0459 59.3286 10.1273C58.4585 9.23464 57.333 8.78185 55.9552 8.78185C54.6518 8.78185 53.5586 9.2314 52.6821 10.1435C51.8056 11.0523 51.3787 12.1908 51.3787 13.533H51.3754Z" fill="#F24822"/>
<path d="M65.9357 6.04747H69.7522V7.44145C71.0815 6.23829 72.5758 5.63025 74.2447 5.63025C76.1561 5.63025 77.6536 6.18008 78.7209 7.28297C79.6395 8.21769 80.1084 9.75399 80.1084 11.8757V21.1032H76.292V12.694C76.292 11.2062 76.0656 10.1874 75.616 9.62137C75.1729 9.04566 74.3805 8.75134 73.2194 8.75134C71.958 8.75134 71.0653 9.13624 70.5284 9.8963C70.0109 10.6467 69.7522 11.9598 69.7522 13.8389V21.1064H65.9357V6.04747Z" fill="#F24822"/>
<path d="M93.952 6.04886H97.7685V21.1078H93.952V19.5294C92.3898 20.8652 90.7015 21.5412 88.9 21.5412C86.6295 21.5412 84.7504 20.7908 83.2626 19.2869C81.7845 17.7506 81.0503 15.8359 81.0503 13.5395C81.0503 11.2431 81.7845 9.40607 83.2626 7.89241C84.7407 6.38846 86.5875 5.63809 88.7997 5.63809C90.7112 5.63809 92.4319 6.35611 93.952 7.80184V6.04886ZM84.9315 13.533C84.9315 14.9788 85.3584 16.1463 86.2026 17.0584C87.0726 17.977 88.1658 18.4362 89.4757 18.4362C90.8794 18.4362 92.0243 17.9931 92.8847 17.1069C93.7547 16.1884 94.1881 15.0273 94.1881 13.6171C94.1881 12.207 93.7547 11.0459 92.8847 10.1273C92.0146 9.23464 90.8891 8.78185 89.5113 8.78185C88.2079 8.78185 87.1146 9.2314 86.2381 10.1435C85.3681 11.0523 84.9347 12.1908 84.9347 13.533H84.9315Z" fill="#F24822"/>
<path d="M99.4898 6.04747H103.29V7.39293C103.992 6.72343 104.61 6.26417 105.143 6.01513C105.693 5.75639 106.346 5.63025 107.107 5.63025C108.109 5.63025 109.154 5.93102 110.247 6.5229L108.51 9.70546C107.792 9.23002 107.081 8.99715 106.398 8.99715C104.328 8.99715 103.29 10.4332 103.29 13.2988V21.1064H99.4898V6.04747Z" fill="#F24822"/>
<path d="M121.688 6.04886H125.504V21.1078H121.688V19.5294C120.125 20.8652 118.437 21.5412 116.636 21.5412C114.365 21.5412 112.486 20.7908 110.998 19.2869C109.52 17.7506 108.786 15.8359 108.786 13.5395C108.786 11.2431 109.52 9.40607 110.998 7.89241C112.476 6.38846 114.323 5.63809 116.535 5.63809C118.447 5.63809 120.167 6.35611 121.688 7.80184V6.04886ZM112.677 13.533C112.677 14.9788 113.104 16.1463 113.948 17.0584C114.818 17.977 115.911 18.4362 117.221 18.4362C118.625 18.4362 119.77 17.9931 120.63 17.1069C121.5 16.1884 121.933 15.0273 121.933 13.6171C121.933 12.207 121.5 11.0459 120.63 10.1273C119.76 9.23464 118.634 8.78185 117.257 8.78185C115.953 8.78185 114.86 9.2314 113.983 10.1435C113.113 11.0523 112.68 12.1908 112.68 13.533H112.677Z" fill="#F24822"/>
</svg>
