<svg width="37" height="37" viewBox="0 0 37 37" fill="none" xmlns="http://www.w3.org/2000/svg">
<g clip-path="url(#clip0_1_102)">
<path d="M31.2577 1.69062L31.2577 1.6906L31.2564 1.68829C31.018 1.2721 30.6524 1.02156 30.2164 1.02156H30.2157H22.7601H22.6304L22.6633 1.14698L24.9621 9.89257L24.9817 9.96715H25.0588H35.5424H35.7097L35.6305 9.81978L31.2577 1.69062ZM21.6803 1.09614L21.6607 1.02156H21.5836H15.4171H15.34L15.3204 1.09614L13.0217 9.84173L12.9887 9.96715H13.1184H23.8823H24.012L23.9791 9.84173L21.6803 1.09614ZM24.15 10.988V10.888H24.05H12.95H12.85V10.988V17.3792V17.4792H12.95H24.05H24.15V17.3792V10.988ZM5.74355 1.68841L5.74351 1.68839L5.74207 1.69109L1.42492 9.82025L1.34691 9.96715H1.51324H11.9412H12.0183L12.0379 9.89257L14.3367 1.14698L14.3696 1.02156H14.2399H6.78357C6.3477 1.02156 5.98127 1.27202 5.74355 1.68841ZM1.12084 10.888H1.02084V10.988V34.6456C1.02084 35.3736 1.62639 35.9792 2.35441 35.9792H34.6449C35.3729 35.9792 35.9784 35.3736 35.9784 34.6456V10.988V10.888H35.8784H25.1708H25.0708V10.988V17.9392C25.0708 18.0848 25.0227 18.1983 24.9458 18.2752C24.8689 18.352 24.7554 18.4 24.6101 18.4H12.3892C12.2436 18.4 12.1301 18.3518 12.0533 18.2749C11.9764 18.198 11.9284 18.0845 11.9284 17.9392V10.988V10.888H11.8284H1.12084ZM32.0347 1.2246L36.8455 10.1755C36.8477 10.1935 36.8513 10.2119 36.8547 10.2275C36.8603 10.2537 36.8677 10.2829 36.8745 10.3101L36.8748 10.3114C36.882 10.3399 36.8886 10.3661 36.8934 10.3886C36.8958 10.3998 36.8976 10.409 36.8987 10.4164C36.8998 10.4234 36.9 10.4267 36.9 10.4272L36.9 10.4272V34.6456C36.9 35.8796 35.8796 36.9 34.6456 36.9H2.35441C1.12042 36.9 0.1 35.8796 0.1 34.6456V10.4272C0.1 10.4273 0.10009 10.424 0.101321 10.4153C0.102469 10.4072 0.104156 10.3974 0.106353 10.3852C0.106871 10.3823 0.107416 10.3793 0.107981 10.3762C0.111958 10.3542 0.11691 10.3269 0.120356 10.2995C0.124245 10.2686 0.127071 10.2317 0.123205 10.1958C0.121656 10.1814 0.118776 10.1647 0.113224 10.1474L4.9096 1.22463C5.28428 0.529104 6.03495 0.1 6.78357 0.1H30.1608C30.9637 0.1 31.6594 0.527167 32.0347 1.22455C32.0347 1.22456 32.0347 1.22458 32.0347 1.2246Z" fill="#645754" stroke="white" stroke-width="0.2"/>
<path d="M2.87389 26.4195L2.87399 26.4196L2.87751 26.4157L4.89408 24.1753C4.94353 24.1261 4.98916 24.093 5.03732 24.0715C5.08562 24.05 5.1415 24.038 5.21397 24.038C5.28643 24.038 5.34231 24.05 5.39061 24.0715C5.43892 24.093 5.48469 24.1263 5.53432 24.1757L7.60335 26.4128C7.73986 26.5982 7.73901 26.8728 7.55908 27.0577C7.37245 27.1932 7.09669 27.1909 6.91235 27.0082L5.8489 25.8329L5.67475 25.6404V25.9V30.7208C5.67475 30.8665 5.62672 30.98 5.54993 31.0568C5.47314 31.1336 5.35967 31.1816 5.21397 31.1816C5.06835 31.1816 4.95487 31.1335 4.87803 31.0566C4.80119 30.9796 4.75318 30.8661 4.75318 30.7208V25.9V25.6404L4.57903 25.8329L3.51553 27.0082C3.41991 27.1033 3.28813 27.1626 3.17182 27.1742C3.05245 27.1861 2.97866 27.1482 2.94899 27.0889L2.9417 27.0743L2.93015 27.0628C2.73074 26.864 2.70147 26.5919 2.87389 26.4195Z" fill="#645754" stroke="white" stroke-width="0.2"/>
<path d="M9.82512 26.4195L9.82522 26.4196L9.82874 26.4157L11.8453 24.1753C11.8948 24.1261 11.9404 24.093 11.9886 24.0715C12.0369 24.05 12.0927 24.038 12.1652 24.038C12.2521 24.038 12.3939 24.0847 12.486 24.1762L14.6113 26.4133C14.7475 26.5987 14.7464 26.873 14.5667 27.0577C14.38 27.1932 14.1043 27.1909 13.9199 27.0082L12.8565 25.8329L12.6823 25.6404V25.9V30.7208C12.6823 30.8665 12.6343 30.98 12.5575 31.0568C12.4807 31.1336 12.3673 31.1816 12.2216 31.1816C12.0759 31.1816 11.9625 31.1335 11.8856 31.0566C11.8088 30.9796 11.7608 30.8661 11.7608 30.7208V25.9V25.6404L11.5866 25.8329L10.5231 27.0083C10.3246 27.2061 10.0541 27.2349 9.88138 27.0628C9.68197 26.864 9.6527 26.5919 9.82512 26.4195Z" fill="#645754" stroke="white" stroke-width="0.2"/>
<path d="M3.53162 32.4468H13.7905C13.8981 32.4468 14.0142 32.5016 14.1053 32.5928C14.1964 32.6839 14.2512 32.7999 14.2512 32.9076C14.2512 33.0532 14.2031 33.1667 14.1262 33.2435C14.0493 33.3204 13.9358 33.3684 13.7905 33.3684H3.53162C3.38591 33.3684 3.27245 33.3203 3.19566 33.2435C3.11887 33.1668 3.07084 33.0533 3.07084 32.9076C3.07084 32.762 3.11899 32.6485 3.1959 32.5717C3.27281 32.4948 3.38632 32.4468 3.53162 32.4468Z" fill="#645754" stroke="white" stroke-width="0.2"/>
<path d="M29.9334 30.6339L29.9489 30.6128L29.9356 30.6357C30.0812 30.7326 30.0945 30.8511 30.07 30.8999L30.0593 30.9211V30.9448C30.0593 31.0904 30.0126 31.2221 29.8799 31.3104L29.8799 31.3103L29.8763 31.3129L24.8888 34.9553C24.7338 35.0584 24.5583 35.0886 24.4407 35.0104C24.2955 34.9138 24.2049 34.7745 24.2049 34.5892V32.7956V32.6956H24.1049H23.0961C20.6234 32.6956 18.5971 30.8289 18.4872 28.4756C18.4326 26.2822 20.0238 24.3095 22.2141 23.9812L22.2141 23.9813L22.219 23.9804C22.4381 23.9363 22.6214 24.0615 22.7213 24.2533C22.7656 24.4449 22.7135 24.6745 22.5316 24.8112C21.8362 25.3326 21.4244 26.0915 21.483 26.9709C21.5428 28.2075 22.6581 29.1956 23.9936 29.1956H24.162H24.262V29.0956V27.3576C24.262 27.1723 24.3526 27.033 24.4978 26.9364C24.6152 26.8583 24.7906 26.8889 24.946 26.9916L29.9334 30.6339ZM25.1272 33.524V33.7202L25.286 33.6049L28.7612 31.0821L28.8727 31.0012L28.7612 30.9203L25.2852 28.3975L25.1265 28.2823V28.4784V29.6556C25.1265 29.8012 25.0783 29.9147 25.0014 29.9916C24.9245 30.0684 24.811 30.1164 24.6657 30.1164H23.9373C22.1339 30.1164 20.6138 28.806 20.5054 27.071L20.5058 27.0709L20.5046 27.063C20.451 26.6893 20.5041 26.3119 20.6138 25.9274L20.7109 25.5873L20.4501 25.8263C19.7572 26.4611 19.2944 27.4426 19.3526 28.484L19.3527 28.4847C19.4681 30.3336 21.0839 31.8297 23.0404 31.8297H24.6664C24.812 31.8297 24.9255 31.8778 25.0024 31.9547C25.0792 32.0316 25.1272 32.1451 25.1272 32.2904V33.524Z" fill="#645754" stroke="white" stroke-width="0.2"/>
<path d="M34.6577 24.111L34.659 24.1386C34.6995 26.3207 33.1125 28.2775 30.9315 28.605L30.9314 28.6049L30.9266 28.6059C30.7075 28.6499 30.5242 28.5247 30.4243 28.3329C30.38 28.1413 30.4321 27.9118 30.6139 27.7751C31.3093 27.2537 31.7212 26.4947 31.6626 25.6153C31.6028 24.3788 30.4875 23.3907 29.152 23.3907H28.9836H28.8836V23.4907V25.2286C28.8836 25.4139 28.793 25.5532 28.6478 25.6498C28.5303 25.7279 28.3549 25.6973 28.1996 25.5946L23.2187 21.9571C23.1153 21.8512 23.0292 21.7106 23.0292 21.5843C23.0292 21.4387 23.0759 21.307 23.2086 21.2188L23.2086 21.2189L23.2122 21.2163L28.1997 17.5739C28.3547 17.4707 28.5302 17.4405 28.6478 17.5188C28.793 17.6154 28.8836 17.7547 28.8836 17.9399V19.7899V19.8899H28.9836H30.0488C32.5211 19.8899 34.5483 21.7572 34.6577 24.111ZM32.531 26.6574L32.434 26.9975L32.6948 26.7585C33.3876 26.1237 33.8512 25.1423 33.793 24.1008L33.7929 24.1001C33.6775 22.2512 32.0617 20.7551 30.1051 20.7551H28.4792C28.3715 20.7551 28.2554 20.7003 28.1643 20.6092C28.0732 20.5181 28.0184 20.402 28.0184 20.2943V19.0608V18.8646L27.8596 18.9798L24.3837 21.5026L24.2722 21.5836L24.3837 21.6645L27.8596 24.1873L28.0184 24.3025V24.1064V22.9292C28.0184 22.7835 28.0665 22.6701 28.1434 22.5932C28.2204 22.5164 28.3339 22.4684 28.4792 22.4684H29.2076C31.0109 22.4684 32.5311 23.7788 32.6394 25.5138L32.6391 25.5138L32.6402 25.5218C32.6939 25.8955 32.6408 26.2729 32.531 26.6574Z" fill="#645754" stroke="white" stroke-width="0.2"/>
</g>
<defs>
<clipPath id="clip0_1_102">
<rect width="37" height="37" fill="white"/>
</clipPath>
</defs>
</svg>
