<svg width="55" height="51" viewBox="0 0 55 51" fill="none" xmlns="http://www.w3.org/2000/svg">
<g clip-path="url(#clip0_1_114)">
<path d="M51.4402 40.3305V40.5305H51.6402H52.227C53.4406 40.5305 54.4276 41.5176 54.4276 42.7312V45.7186C54.4276 46.9322 53.4406 47.9192 52.227 47.9192H50.9467C50.6154 47.9192 50.3464 47.6503 50.3464 47.319C50.3464 46.9878 50.6154 46.7188 50.9467 46.7188H52.227C52.7792 46.7188 53.2272 46.2708 53.2272 45.7186V42.7312C53.2272 42.179 52.7792 41.731 52.227 41.731H10.3494H10.1494V41.931V45.7186C10.1494 46.2708 10.5974 46.7188 11.1496 46.7188H15.4387H15.602L15.6347 46.5589C15.9638 44.9477 17.4109 43.7314 19.0983 43.7314C20.7861 43.7314 22.2014 44.9217 22.5498 46.5084L22.5843 46.6655H22.7451H40.6304H40.7913L40.8257 46.5083C41.1731 44.9217 42.5883 43.7314 44.2772 43.7314C46.2259 43.7314 47.8115 45.3169 47.8115 47.2657C47.8115 49.2144 46.2259 50.8 44.2772 50.8C42.5895 50.8 41.1741 49.6097 40.8257 48.023L40.7912 47.8659H40.6304H22.7451H22.5842L22.5498 48.0231C22.2025 49.609 20.7686 50.8 19.0983 50.8C17.4277 50.8 16.0246 49.6339 15.6579 48.0735L15.6217 47.9192H15.4632H11.1496C9.93596 47.9192 8.94895 46.9322 8.94895 45.7186V21.2856C8.94895 20.7334 8.50092 20.2854 7.94875 20.2854H7.36193H7.16193V20.4854V21.2856C7.16193 22.4992 6.17492 23.4862 4.9613 23.4862H2.40063C1.18701 23.4862 0.2 22.4992 0.2 21.2856C0.2 20.0719 1.18701 19.0849 2.40063 19.0849H7.94875C9.16237 19.0849 10.1494 20.0719 10.1494 21.2856V37.6632V37.8632H10.3494H11.9498H12.1498V37.6632V2.9341C12.1498 1.42707 13.3769 0.2 14.8839 0.2H32.0617C33.5687 0.2 34.7958 1.42707 34.7958 2.9341V12.1845V12.4159L35.0248 12.3824C35.1059 12.3705 35.1843 12.3632 35.2626 12.3632H48.1726C49.0917 12.3632 49.8397 13.1112 49.8397 14.0303V37.6845V37.8577L50.0112 37.8825C50.8175 37.9987 51.4402 38.6929 51.4402 39.5303V40.3305ZM5.96151 20.4854V20.2854H5.76151H2.40063C1.84845 20.2854 1.40042 20.7334 1.40042 21.2856C1.40042 21.8377 1.84846 22.2858 2.40063 22.2858H4.9613C5.51347 22.2858 5.96151 21.8377 5.96151 21.2856V20.4854ZM48.4393 37.8632H48.6393V37.6632V14.0303C48.6393 13.7726 48.4303 13.5636 48.1726 13.5636H35.2626C35.0049 13.5636 34.7958 13.7726 34.7958 14.0303V37.6632V37.8632H34.9958H48.4393ZM13.5502 26.5803H13.3502V26.7803V37.6632V37.8632H13.5502H33.3954H33.5954V37.6632V2.9341C33.5954 2.08852 32.9073 1.40042 32.0617 1.40042H14.8839C14.0383 1.40042 13.3502 2.08852 13.3502 2.9341V25.1799V25.3799H13.5502H30.4613C30.7926 25.3799 31.0615 25.6489 31.0615 25.9801C31.0615 26.3114 30.7926 26.5803 30.4613 26.5803H13.5502ZM50.0397 40.5305H50.2397V40.3305V39.5303C50.2397 39.2726 50.0307 39.0636 49.773 39.0636H10.3494H10.1494V39.2636V40.3305V40.5305H10.3494H50.0397ZM46.6121 47.2657C46.6121 45.9784 45.5655 44.9318 44.2782 44.9318C42.9909 44.9318 41.9444 45.9784 41.9444 47.2657C41.9444 48.553 42.9909 49.5996 44.2782 49.5996C45.5655 49.5996 46.6121 48.553 46.6121 47.2657ZM21.4322 47.2657C21.4322 45.9784 20.3856 44.9318 19.0983 44.9318C17.811 44.9318 16.7644 45.9784 16.7644 47.2657C16.7644 48.553 17.811 49.5996 19.0983 49.5996C20.3856 49.5996 21.4322 48.553 21.4322 47.2657Z" fill="#645754" stroke="white" stroke-width="0.4"/>
<path d="M38.3788 19.7947L37.9967 19.8772V31.5496L38.3788 31.6321L41.0217 25.7959L41.059 25.7134L41.0217 25.6309L38.3788 19.7947ZM45.0563 31.6321L45.4385 31.5496V19.8772L45.0563 19.7947L42.4135 25.6309L42.3761 25.7134L42.4135 25.7959L45.0563 31.6321ZM44.8 34.6623H45.1101L44.9822 34.3799L41.8998 27.5706L41.7176 27.1682L41.5354 27.5706L38.4519 34.3798L38.324 34.6623H38.6341H44.8ZM41.5354 23.8551L41.5886 23.9726H41.7176H41.7186H41.8476L41.9008 23.8551L44.9832 17.0469L45.1111 16.7644H44.801H38.6352H38.3251L38.453 17.0469L41.5354 23.8551ZM45.8253 35.8628H37.6098C37.1612 35.8628 36.7962 35.4978 36.7962 35.0492V16.3776C36.7962 15.929 37.1612 15.564 37.6098 15.564H45.8253C46.2739 15.564 46.6389 15.929 46.6389 16.3776V35.0492C46.6389 35.4978 46.2739 35.8628 45.8253 35.8628Z" fill="#645754" stroke="white" stroke-width="0.4"/>
<path d="M16.4709 11.9071V11.8039L16.3868 11.7441C16.0824 11.5277 15.8841 11.1752 15.8841 10.7762C15.8841 10.1216 16.4166 9.58913 17.0711 9.58913C17.7257 9.58913 18.2582 10.1216 18.2582 10.7762C18.2582 11.1742 18.0598 11.5278 17.7555 11.7441L17.6713 11.8039V11.9071V14.9799V15.0831L17.7555 15.1429C18.0598 15.3593 18.2582 15.7118 18.2582 16.1109C18.2582 16.7654 17.7257 17.2979 17.0711 17.2979C16.4166 17.2979 15.8841 16.7654 15.8841 16.1109C15.8841 15.7128 16.0825 15.3592 16.3868 15.1429L16.4709 15.0831V14.9799V11.9071Z" fill="#645754" stroke="white" stroke-width="0.4"/>
<path d="M16.4709 31.2188V31.1156L16.3868 31.0558C16.0824 30.8395 15.8841 30.4869 15.8841 30.0879C15.8841 29.4333 16.4166 28.9008 17.0711 28.9008C17.7257 28.9008 18.2582 29.4333 18.2582 30.0879C18.2582 30.4859 18.0598 30.8395 17.7555 31.0558L17.6713 31.1156V31.2188V33.2247V33.3279L17.7555 33.3877C18.0598 33.6041 18.2582 33.9566 18.2582 34.3556C18.2582 35.0102 17.7257 35.5427 17.0711 35.5427C16.4166 35.5427 15.8841 35.0102 15.8841 34.3556C15.8841 33.9576 16.0825 33.604 16.3868 33.3877L16.4709 33.3279V33.2247V31.2188Z" fill="#645754" stroke="white" stroke-width="0.4"/>
</g>
<defs>
<clipPath id="clip0_1_114">
<rect width="54.6276" height="51" fill="white"/>
</clipPath>
</defs>
</svg>
