<svg width="24" height="24" viewBox="0 0 24 24" fill="none" xmlns="http://www.w3.org/2000/svg">
<path d="M23.4994 11.4998C23.7792 11.4998 23.9995 11.7197 23.9995 12C23.9995 12.2803 23.7797 12.5001 23.4994 12.5001H22.9993V11.5003H23.4994V11.4998Z" fill="#B8A49F"/>
<path d="M12.5001 11.4998H22.9997V12.4997H12.5001V11.4998Z" fill="#B8A49F"/>
<path d="M21.4998 23.9995H12C12.2798 23.9995 12.5001 23.7797 12.5001 23.4994V22.9993H21.4998C22.3299 22.9993 22.9997 22.3295 22.9997 21.4993V12.4997H23.4998C23.7797 12.4997 24 12.2798 24 11.9995V21.4993C24 22.8793 22.8802 23.9991 21.5002 23.9991L21.4998 23.9995Z" fill="#B8A49F"/>
<path d="M23.9995 2.50022V12C23.9995 11.7202 23.7797 11.4999 23.4994 11.4999H22.9993V2.50022C22.9993 1.67009 22.3294 1.00027 21.4993 1.00027H12.4997V0.500136C12.4997 0.220303 12.2798 0 11.9995 0H21.4993C22.8793 0 23.9991 1.1198 23.9991 2.49975L23.9995 2.50022Z" fill="#B8A49F"/>
<path d="M19.9998 6.00021C20.2797 6.00021 20.5 6.22005 20.5 6.50035C20.5 6.78065 20.2801 7.00049 19.9998 7.00049H16.0001C15.7203 7.00049 15.5 6.78065 15.5 6.50035C15.5 6.22005 15.7198 6.00021 16.0001 6.00021H19.9998Z" fill="#B8A49F"/>
<path d="M19.9998 15.9997C20.2797 15.9997 20.5 16.2195 20.5 16.4998C20.5 16.7801 20.2801 17 19.9998 17H16.0001C15.7203 17 15.5 16.7801 15.5 16.4998C15.5 16.2195 15.7198 15.9997 16.0001 15.9997H19.9998Z" fill="#B8A49F"/>
<path d="M19.9998 18.9996C20.2797 18.9996 20.5 19.2194 20.5 19.4997C20.5 19.78 20.2801 19.9998 19.9998 19.9998H16.0001C15.7203 19.9998 15.5 19.78 15.5 19.4997C15.5 19.2194 15.7198 18.9996 16.0001 18.9996H19.9998Z" fill="#B8A49F"/>
<path d="M12.5001 22.9997V23.4999C12.5001 23.7797 12.2803 24 12 24C11.7197 24 11.4999 23.7802 11.4999 23.4999V22.9997H12.4997H12.5001Z" fill="#B8A49F"/>
<path d="M11.4999 12.5001H12.4997V22.9997H11.4999V12.5001Z" fill="#B8A49F"/>
<path d="M11.4999 11.4998H12.4997V12.4997H11.4999V11.4998Z" fill="#B8A49F"/>
<path d="M11.4999 1.00027H12.4997V11.4999H11.4999V1.00027Z" fill="#B8A49F"/>
<path d="M12.5001 0.500595V1.00073H11.5003V0.500595C11.5003 0.220762 11.7202 0.000457764 12.0005 0.000457764C12.2808 0.000457764 12.5006 0.220293 12.5006 0.500595H12.5001Z" fill="#B8A49F"/>
<path d="M1.00026 11.4998H11.4998V12.4997H1.00026V11.4998Z" fill="#B8A49F"/>
<path d="M8.00029 6.00021C8.28013 6.00021 8.50043 6.22005 8.50043 6.50035C8.50043 6.78065 8.28059 7.00049 8.00029 7.00049H6.50035V6.00068H8.00029V6.00021Z" fill="#B8A49F"/>
<path d="M7.85031 19.1496C8.05046 19.3394 8.05046 19.6595 7.85031 19.8494C7.76032 19.9492 7.63048 19.9994 7.50017 19.9994C7.36986 19.9994 7.24002 19.9492 7.15003 19.8494L6.00023 18.6996L6.70005 17.9998L7.84984 19.1496H7.85031Z" fill="#B8A49F"/>
<path d="M7.15003 16.1497C7.33986 15.9496 7.66001 15.9496 7.84984 16.1497C8.04999 16.3396 8.04999 16.6597 7.84984 16.8495L6.70004 17.9993L6.00023 17.2995L7.15003 16.1497Z" fill="#B8A49F"/>
<path d="M5.29712 17.9989L5.99694 17.299L6.69675 17.9989L5.99694 18.6987L5.29712 17.9989Z" fill="#B8A49F"/>
<path d="M6.50036 7.00003V8.49997C6.50036 8.7798 6.28053 9.00011 6.00023 9.00011C5.71993 9.00011 5.50009 8.78027 5.50009 8.49997V7.00003H6.4999H6.50036Z" fill="#B8A49F"/>
<path d="M5.50009 6.00021H6.4999V7.00002H5.50009V6.00021Z" fill="#B8A49F"/>
<path d="M6.50035 4.50029V6.00023H5.50055V4.50029C5.50055 4.22046 5.72039 4.00015 6.00069 4.00015C6.28099 4.00015 6.50082 4.21999 6.50082 4.50029H6.50035Z" fill="#B8A49F"/>
<path d="M6.00024 17.3L5.30043 17.9998L4.15063 16.85C3.95048 16.6602 3.95048 16.34 4.15063 16.1502C4.34047 15.95 4.66061 15.95 4.85045 16.1502L6.00024 17.3Z" fill="#B8A49F"/>
<path d="M5.50009 6.00023V7.00003H4.00015C3.72032 7.00003 3.50002 6.78019 3.50002 6.49989C3.50002 6.21959 3.71985 5.99976 4.00015 5.99976H5.50009V6.00023Z" fill="#B8A49F"/>
<path d="M4.85046 19.8498C4.76046 19.9497 4.63062 19.9998 4.50032 19.9998C4.37001 19.9998 4.24017 19.9497 4.15017 19.8498C3.95002 19.66 3.95002 19.3398 4.15017 19.15L5.29997 18.0002L5.99979 18.7L4.84999 19.8498H4.85046Z" fill="#B8A49F"/>
<path d="M1.00027 11.4999V12.4997H0.500136C0.220303 12.4997 0 12.2798 0 11.9995C0 11.7192 0.219834 11.4994 0.500136 11.4994H1.00027V11.4999Z" fill="#B8A49F"/>
<path d="M0.000467759 2.5002C0.000467759 1.12026 1.12027 0.000457764 2.50021 0.000457764H12C11.7202 0.000457764 11.4999 0.220293 11.4999 0.500595V1.00073H2.50021C1.67009 1.00073 1.00027 1.67055 1.00027 2.50067V11.5003H0.500136C0.220303 11.5003 0 11.7202 0 12.0005V2.50067L0.000467759 2.5002Z" fill="#B8A49F"/>
<path d="M1.00026 21.4998C1.00026 22.3299 1.67008 22.9997 2.50021 22.9997H11.4999V23.4999C11.4999 23.7797 11.7197 24 12 24H2.50021C1.12026 24 0.000457764 22.8802 0.000457764 21.5002V12.0005C0.000457764 12.2803 0.220294 12.5006 0.500595 12.5006H1.00073V21.5002L1.00026 21.4998Z" fill="#B8A49F"/>
</svg>
