<svg width="24" height="24" viewBox="0 0 24 24" fill="none" xmlns="http://www.w3.org/2000/svg">
<path fill-rule="evenodd" clip-rule="evenodd" d="M9.62824 0.733635C11.0581 -0.244545 12.9419 -0.244545 14.3718 0.733635L22.1719 6.07059C23.316 6.85359 24 8.1507 24 9.53669V19.638C24 21.9577 22.1196 23.8381 19.7998 23.8381H4.20015C1.88042 23.8381 0 21.9577 0 19.638V9.53669C0 8.15014 0.683995 6.85302 1.82811 6.07059L9.62824 0.733635ZM8.99993 18.4376C8.66862 18.4376 8.39975 18.7065 8.39975 19.0378C8.39975 19.3691 8.66862 19.638 8.99993 19.638H15.0001C15.3314 19.638 15.6003 19.3691 15.6003 19.0378C15.6003 18.7065 15.3314 18.4376 15.0001 18.4376H8.99993Z" fill="#41090A"/>
</svg>
