<svg width="20" height="24" viewBox="0 0 20 24" fill="none" xmlns="http://www.w3.org/2000/svg">
<path d="M9.85076 11.4483C11.4234 11.4483 12.7854 10.8843 13.8985 9.77117C15.0111 8.65851 15.5751 7.29704 15.5751 5.72391C15.5751 4.15077 15.0111 2.78977 13.898 1.67665C12.7849 0.563989 11.4234 0 9.85076 0C8.27809 0 6.91616 0.563989 5.8035 1.67665C4.69084 2.78931 4.12639 4.15124 4.12639 5.72391C4.12639 7.29658 4.69084 8.65851 5.8035 9.77163C6.91663 10.8843 8.27856 11.4483 9.85076 11.4483ZM6.78851 2.66166C7.64215 1.80801 8.64387 1.39257 9.85076 1.39257C11.0577 1.39257 12.0594 1.80755 12.9135 2.66166C13.7671 3.51576 14.1826 4.51748 14.1826 5.72391C14.1826 6.93034 13.7671 7.93252 12.9135 8.78663C12.0594 9.64073 11.0577 10.0557 9.85076 10.0557C8.64387 10.0557 7.64262 9.64027 6.78851 8.78663C5.9344 7.93298 5.51942 6.9308 5.51942 5.72391C5.51942 4.51702 5.93487 3.51576 6.78851 2.66166Z" fill="#B8A49F"/>
<path d="M19.8668 18.2751C19.8348 17.8118 19.7698 17.3068 19.6742 16.7734C19.5776 16.2359 19.4537 15.7281 19.3047 15.2634C19.151 14.7835 18.9421 14.3095 18.6836 13.8551C18.4157 13.3835 18.101 12.9731 17.7478 12.6352C17.3783 12.282 16.9262 11.9979 16.4035 11.7904C15.8822 11.5843 15.3047 11.4798 14.6869 11.4798C14.4441 11.4798 14.2097 11.5792 13.7567 11.8744C13.4777 12.0564 13.1514 12.2666 12.7875 12.4992C12.476 12.6974 12.0545 12.8835 11.5332 13.0516C11.0249 13.2159 10.5088 13.2995 9.99954 13.2995C9.49032 13.2995 8.97414 13.2159 8.46586 13.0516C7.9455 12.8835 7.52355 12.6979 7.21255 12.4992C6.85187 12.269 6.52555 12.0582 6.24239 11.8739C5.78981 11.5787 5.55493 11.4794 5.31216 11.4794C4.69432 11.4794 4.11687 11.5838 3.59606 11.7904C3.07338 11.9974 2.62126 12.2815 2.2513 12.6352C1.89805 12.9731 1.58333 13.3835 1.3155 13.8546C1.05741 14.3091 0.848523 14.7825 0.694876 15.263C0.546336 15.7272 0.421933 16.2354 0.325846 16.7725C0.230223 17.3054 0.165237 17.8104 0.133208 18.2746C0.101643 18.7286 0.0858612 19.2007 0.0858612 19.6779C0.0858612 20.9186 0.480421 21.9227 1.25794 22.6635C2.02617 23.3946 3.04228 23.765 4.27841 23.765H15.7221C16.9577 23.765 17.9738 23.3946 18.7421 22.6635C19.52 21.9232 19.9141 20.9186 19.9141 19.6779C19.9141 19.1988 19.8979 18.7267 19.8659 18.2742L19.8668 18.2751ZM17.7821 21.6558C17.2748 22.139 16.6008 22.3734 15.7221 22.3734H4.27841C3.3997 22.3734 2.7257 22.1385 2.21834 21.6558C1.72073 21.1818 1.47889 20.5352 1.47889 19.6788C1.47889 19.2336 1.49374 18.7936 1.52299 18.3716C1.55177 17.9576 1.61026 17.5027 1.69706 17.019C1.78293 16.5413 1.89202 16.0934 2.02199 15.6877C2.14639 15.2987 2.31629 14.9134 2.52703 14.5426C2.72802 14.1888 2.95965 13.8857 3.21496 13.6411C3.45355 13.4123 3.75481 13.2252 4.10945 13.085C4.43763 12.955 4.80619 12.884 5.20633 12.8733C5.25506 12.8993 5.34187 12.9485 5.48252 13.0404C5.76892 13.227 6.09896 13.4401 6.46381 13.6727C6.87508 13.9349 7.40472 14.1717 8.03788 14.3759C8.68495 14.5853 9.34503 14.6916 10 14.6916C10.655 14.6916 11.3155 14.5853 11.9621 14.3764C12.5957 14.1717 13.1254 13.9349 13.5371 13.6727C13.9103 13.4341 14.2311 13.2275 14.5175 13.0404C14.6581 12.949 14.7449 12.8993 14.7937 12.8733C15.1938 12.884 15.5628 12.955 15.891 13.085C16.2457 13.2252 16.5465 13.4127 16.7855 13.6411C17.0408 13.8853 17.272 14.1888 17.4734 14.5426C17.6842 14.9134 17.8545 15.2987 17.9789 15.6872C18.1089 16.0934 18.2185 16.5413 18.3039 17.0185C18.3907 17.5027 18.4492 17.958 18.4779 18.3712C18.5076 18.7922 18.5225 19.2318 18.5225 19.6783C18.5225 20.5348 18.2807 21.1814 17.7826 21.6549L17.7821 21.6558Z" fill="#B8A49F"/>
</svg>
