<svg width="24" height="24" viewBox="0 0 24 24" fill="none" xmlns="http://www.w3.org/2000/svg">
<path d="M22.9083 12.1005V8.72759C22.9083 7.58368 22.0211 6.65353 20.9002 6.56353L17.7676 1.09201C17.4771 0.585771 17.0087 0.224242 16.4478 0.073903C15.8894 -0.0754131 15.3059 0.00333677 14.8063 0.293787L4.06784 6.54563H2.18196C0.978736 6.54563 0 7.52385 0 8.72759V21.8183C0 23.0215 0.978736 24.0003 2.18196 24.0003H20.7273C21.9305 24.0003 22.9093 23.0215 22.9093 21.8183V18.4454C23.5428 18.2194 24 17.6196 24 16.9093V13.6366C24 12.9263 23.5428 12.3265 22.9093 12.1005H22.9083ZM19.6325 6.54512H14.8784L18.4441 4.46901L19.6325 6.54512ZM17.9021 3.523L12.7103 6.54563H10.557L17.3636 2.58262L17.9021 3.523ZM15.355 1.23622C15.6015 1.09201 15.8899 1.05366 16.165 1.12679C16.4437 1.20144 16.6758 1.38144 16.82 1.63354L16.8211 1.63559L8.38829 6.54512H6.23497L15.3545 1.23622H15.355ZM21.8175 21.8178C21.8175 22.4192 21.3282 22.9085 20.7268 22.9085H2.18145C1.58009 22.9085 1.09072 22.4192 1.09072 21.8178V8.72708C1.09072 8.12572 1.58009 7.63635 2.18145 7.63635H20.7268C21.3282 7.63635 21.8175 8.12572 21.8175 8.72708V11.9998H18.5448C16.7403 11.9998 15.2722 13.4679 15.2722 15.2724C15.2722 17.077 16.7403 18.5451 18.5448 18.5451H21.8175V21.8178ZM22.9083 16.9088C22.9083 17.21 22.6638 17.4544 22.3626 17.4544H18.5443C17.3411 17.4544 16.3624 16.4757 16.3624 15.2724C16.3624 14.0692 17.3411 13.0905 18.5443 13.0905H22.3626C22.6638 13.0905 22.9083 13.3349 22.9083 13.6361V16.9088Z" fill="#B8A49F"/>
</svg>
