<svg width="51" height="49" viewBox="0 0 51 49" fill="none" xmlns="http://www.w3.org/2000/svg">
<g clip-path="url(#clip0_1_135)">
<path d="M41.3714 16.7559V39.749C41.3714 41.1575 40.5603 42.4324 39.3038 42.9976L29.6451 47.3416L26.5041 48.7544C26.1146 48.9296 25.6972 49.0115 25.2818 48.9993V24.4562L41.3714 16.7559Z" fill="#2534A6"/>
<path d="M29.6451 47.3416L26.5041 48.7544C26.1146 48.9296 25.6972 49.0115 25.2818 48.9993C24.8721 48.9885 24.4644 48.8872 24.0882 48.6962C24.0875 48.6962 24.0868 48.6947 24.0861 48.6947L13.2269 43.1564C11.9193 42.4891 11.0921 41.1187 11.0921 39.619V21.6277C11.0921 19.4163 13.3821 17.9985 15.2855 19.0313L23.7589 23.6295C24.2882 23.9168 25.2818 24.4562 25.2818 24.4562V43.6785C25.2818 45.2321 25.7706 46.4179 26.5601 47.0794C27.3495 47.7409 28.4403 47.886 29.6451 47.3416Z" fill="#273ECD"/>
<path d="M25.2818 24.4562L16.5609 27.829C16.2168 27.9619 15.8323 27.9239 15.5204 27.7249L11.0921 24.9072L0.276893 18.025C-0.218171 17.7104 -0.00699918 16.9268 0.574771 16.9175L11.0921 16.7559L25.2818 24.4562Z" fill="#F24822"/>
<path d="M23.5002 9.76668C21.794 10.4993 20.4857 12.0184 20.0075 13.8808L18.8138 14.2658C18.8292 14.1329 18.8369 13.9978 18.8369 13.8614C18.8369 11.948 17.3217 10.3915 15.4596 10.3915C13.5975 10.3915 12.0815 11.948 12.0815 13.8614C12.0815 14.7427 12.4039 15.5493 12.9339 16.1619L11.0928 16.7559H11.0921L2.76551 8.1614C2.73754 8.13339 2.71377 8.10323 2.69279 8.07162C2.67181 8.04074 2.65363 8.00842 2.63895 7.97466C2.63475 7.96532 2.63056 7.95599 2.62706 7.94593C2.61518 7.9172 2.60609 7.88775 2.59979 7.8583C2.58511 7.79797 2.58021 7.7362 2.58301 7.67515C2.58371 7.66438 2.58441 7.6536 2.58511 7.64355C2.58791 7.61626 2.5921 7.5904 2.5977 7.56382C2.60259 7.53797 2.60958 7.51211 2.61937 7.48697C2.62636 7.46686 2.63406 7.44747 2.64315 7.42808C2.64734 7.41802 2.65224 7.40868 2.65713 7.39935C2.66622 7.37995 2.67741 7.36056 2.69069 7.34189C2.69909 7.32896 2.70818 7.31603 2.71727 7.30382C2.72705 7.29161 2.73684 7.27868 2.74733 7.26719C2.75502 7.25929 2.76202 7.25139 2.76971 7.24349C2.7739 7.23846 2.7781 7.23415 2.78299 7.23056C2.79069 7.22194 2.79838 7.21476 2.80677 7.20829C2.81586 7.20039 2.82495 7.19321 2.83404 7.18675C2.84243 7.18028 2.85082 7.17382 2.85921 7.16807C2.89907 7.14006 2.94312 7.11708 2.99067 7.09912C3.00745 7.09266 3.02563 7.08619 3.04381 7.08117L16.2707 3.3147C16.2462 3.50288 16.2336 3.69537 16.2336 3.89073C16.2336 6.32988 18.1649 8.31439 20.5396 8.31439C21.0794 8.31439 21.5954 8.21168 22.0723 8.02422L23.4995 9.76668H23.5002Z" fill="#F24822"/>
<path d="M29.2158 6.95045C29.615 7.09913 30.0465 7.18029 30.4954 7.18029C32.4407 7.18029 34.0468 5.66049 34.2482 3.71692L49.5658 6.38591C49.6861 6.40674 49.7861 6.46492 49.8602 6.54464C49.884 6.5705 49.9057 6.59851 49.9239 6.62796C49.9518 6.67249 49.9728 6.72061 49.9875 6.77089C50.0364 6.9447 50.005 7.14222 49.8679 7.29521L41.3707 16.7559L38.0927 15.8042C38.8388 15.1672 39.3142 14.2069 39.3142 13.1352C39.3142 11.2218 37.7997 9.66541 35.9369 9.66541C34.0741 9.66541 32.5596 11.2218 32.5596 13.1352C32.5596 13.5253 32.6225 13.9002 32.7379 14.25L31.6128 13.9232C31.0765 11.7742 29.4367 10.0748 27.353 9.50237C27.353 9.50237 27.353 9.50165 27.3523 9.50165L29.2144 6.95117" fill="#F24822"/>
<path d="M50.7133 18.0825L41.3714 23.2919L33.5028 27.6797C32.9882 27.967 32.3708 27.9813 31.8442 27.7192L25.2818 24.4562L41.3714 16.7559L50.4686 17.0288C51.0266 17.0453 51.2042 17.8088 50.7133 18.0825Z" fill="#F24822"/>
<path d="M24.2868 3.89074C24.2868 5.60518 23.1967 7.05675 21.6891 7.55522H21.6884C21.3262 7.67516 20.9402 7.7398 20.5396 7.7398C18.4705 7.7398 16.793 6.01674 16.793 3.89074C16.793 3.63576 16.8175 3.38725 16.8637 3.14592C17.2007 1.37689 18.7187 0.0423889 20.5396 0.0423889C22.6093 0.0423889 24.2868 1.76545 24.2868 3.89074Z" fill="#273ECD"/>
<path d="M33.7105 3.3032C33.7105 3.41022 33.7056 3.5158 33.6958 3.61995C33.5406 5.29489 32.1666 6.60569 30.4954 6.60569C30.173 6.60569 29.8619 6.55684 29.5689 6.46635C28.2445 6.05767 27.2803 4.79571 27.2803 3.3032C27.2803 1.47886 28.7193 0 30.4954 0C32.2715 0 33.7105 1.47886 33.7105 3.3032Z" fill="#F24822"/>
<path d="M38.7556 13.1352C38.7556 14.1803 38.2157 15.0968 37.4074 15.6053C36.9795 15.8746 36.476 16.0297 35.9376 16.0297C34.8419 16.0297 33.893 15.3876 33.4266 14.4496C33.2301 14.0553 33.1197 13.6086 33.1197 13.1352C33.1197 11.5364 34.3811 10.24 35.9376 10.24C37.4941 10.24 38.7556 11.5364 38.7556 13.1352Z" fill="#273ECD"/>
<path d="M18.2775 13.8614C18.2775 14.0661 18.2572 14.265 18.2174 14.4575C17.9503 15.7697 16.8161 16.7559 15.4596 16.7559C14.7128 16.7559 14.0331 16.4571 13.529 15.9701C12.9821 15.4422 12.6409 14.6924 12.6409 13.8614C12.6409 12.2626 13.903 10.9661 15.4596 10.9661C17.0161 10.9661 18.2775 12.2626 18.2775 13.8614Z" fill="#273ECD"/>
<path d="M31.2408 15.4516C31.2408 18.5357 28.8067 21.0352 25.8049 21.0352C22.803 21.0352 20.369 18.5357 20.369 15.4516C20.369 14.8296 20.4682 14.2313 20.6508 13.6732C21.1689 12.0873 22.3618 10.8196 23.8785 10.2292H23.8792C24.4777 9.9958 25.1266 9.86795 25.8049 9.86795C26.2111 9.86795 26.6076 9.91392 26.9887 10.0008C28.876 10.4318 30.394 11.8704 30.98 13.7393C31.1485 14.2787 31.2401 14.854 31.2401 15.4516H31.2408Z" fill="#F24822"/>
</g>
<defs>
<clipPath id="clip0_1_135">
<rect width="51" height="49" fill="white"/>
</clipPath>
</defs>
</svg>
