<svg width="32" height="32" viewBox="0 0 32 32" fill="none" xmlns="http://www.w3.org/2000/svg">
<mask id="mask0_1_91" style="mask-type:alpha" maskUnits="userSpaceOnUse" x="0" y="0" width="32" height="32">
<rect width="32" height="32" fill="#41090A"/>
</mask>
<g mask="url(#mask0_1_91)">
<path d="M7.00023 25.1793C6.71645 25.1793 6.4789 25.0837 6.28756 24.8923C6.09601 24.7008 6.00023 24.4632 6.00023 24.1797C6.00023 23.8959 6.09601 23.6582 6.28756 23.4667C6.4789 23.2753 6.71645 23.1797 7.00023 23.1797H8.41056V13.2307C8.41056 11.4376 8.96401 9.85212 10.0709 8.47434C11.1776 7.09657 12.5985 6.21534 14.3336 5.83068V5.00001C14.3336 4.53845 14.496 4.14534 14.8209 3.82068C15.1456 3.49579 15.5387 3.33334 16.0002 3.33334C16.4618 3.33334 16.8549 3.49579 17.1796 3.82068C17.5045 4.14534 17.6669 4.53845 17.6669 5.00001V5.83068C19.402 6.21534 20.8229 7.09657 21.9296 8.47434C23.0365 9.85212 23.5899 11.4376 23.5899 13.2307V23.1797H25.0002C25.284 23.1797 25.5216 23.2753 25.7129 23.4667C25.9045 23.6582 26.0002 23.8959 26.0002 24.1797C26.0002 24.4632 25.9045 24.7008 25.7129 24.8923C25.5216 25.0837 25.284 25.1793 25.0002 25.1793H7.00023ZM16.0002 28.923C15.3353 28.923 14.7675 28.6876 14.2966 28.2167C13.8255 27.7458 13.5899 27.1778 13.5899 26.5127H18.4106C18.4106 27.1778 18.175 27.7458 17.7039 28.2167C17.233 28.6876 16.6651 28.923 16.0002 28.923ZM4.48756 13.218C4.20378 13.218 3.96612 13.1099 3.77456 12.8937C3.58323 12.6775 3.50123 12.4231 3.52856 12.1307C3.67212 10.4727 4.11734 8.93346 4.86423 7.51301C5.61134 6.09234 6.57801 4.86579 7.76423 3.83334C7.9849 3.64023 8.23579 3.55045 8.5169 3.56401C8.79801 3.57779 9.02412 3.70179 9.19523 3.93601C9.36612 4.17023 9.42934 4.42234 9.3849 4.69234C9.34045 4.96234 9.20801 5.19657 8.98756 5.39501C8.03534 6.24279 7.26223 7.24534 6.66823 8.40268C6.07423 9.55979 5.70545 10.8145 5.5619 12.1667C5.5259 12.4589 5.4109 12.7072 5.2169 12.9117C5.0229 13.1159 4.77978 13.218 4.48756 13.218ZM27.5129 13.218C27.2207 13.218 26.9776 13.1159 26.7836 12.9117C26.5896 12.7072 26.4746 12.4589 26.4386 12.1667C26.295 10.8145 25.9262 9.55979 25.3322 8.40268C24.7382 7.24534 23.9651 6.24279 23.0129 5.39501C22.7925 5.19657 22.66 4.96234 22.6156 4.69234C22.5711 4.42234 22.6343 4.17023 22.8052 3.93601C22.9763 3.70179 23.2025 3.57779 23.4836 3.56401C23.7647 3.55045 24.0156 3.64023 24.2362 3.83334C25.4225 4.86579 26.3891 6.09234 27.1362 7.51301C27.8831 8.93346 28.3283 10.4727 28.4719 12.1307C28.4992 12.4231 28.4172 12.6775 28.2259 12.8937C28.0343 13.1099 27.7967 13.218 27.5129 13.218Z" fill="#41090A"/>
</g>
</svg>
