<svg width="22" height="22" viewBox="0 0 22 22" fill="none" xmlns="http://www.w3.org/2000/svg">
<mask id="mask0_1_150" style="mask-type:alpha" maskUnits="userSpaceOnUse" x="0" y="0" width="22" height="22">
<rect width="22" height="22" fill="#D9D9D9"/>
</mask>
<g mask="url(#mask0_1_150)">
<path d="M17.914 18.8623L12.1566 13.1047C11.6983 13.4831 11.1712 13.7793 10.5754 13.9932C9.97956 14.2071 9.36318 14.314 8.72625 14.314C7.15951 14.314 5.83356 13.7716 4.74838 12.6867C3.6632 11.6018 3.12061 10.2762 3.12061 8.70973C3.12061 7.14345 3.66304 5.81734 4.74792 4.73139C5.83279 3.6456 7.15845 3.10271 8.72488 3.10271C10.2912 3.10271 11.6173 3.6453 12.7032 4.73048C13.789 5.81566 14.3319 7.14162 14.3319 8.70835C14.3319 9.36301 14.2221 9.98825 14.0024 10.5841C13.7825 11.1799 13.4893 11.6981 13.1226 12.1388L18.8799 17.8961L17.914 18.8623ZM8.72625 12.9392C9.90738 12.9392 10.9078 12.5293 11.7274 11.7095C12.5472 10.8899 12.9571 9.88948 12.9571 8.70835C12.9571 7.52723 12.5472 6.52684 11.7274 5.70719C10.9078 4.88738 9.90738 4.47748 8.72625 4.47748C7.54513 4.47748 6.54474 4.88738 5.72508 5.70719C4.90528 6.52684 4.49538 7.52723 4.49538 8.70835C4.49538 9.88948 4.90528 10.8899 5.72508 11.7095C6.54474 12.5293 7.54513 12.9392 8.72625 12.9392Z" fill="#B8A49F"/>
</g>
</svg>
